<svg width="26" height="26" viewBox="0 0 26 26" fill="none" xmlns="http://www.w3.org/2000/svg">
<g clip-path="url(#clip0_507_905)">
<path d="M11.7812 5.6875H14.2188C14.3265 5.6875 14.4298 5.6447 14.506 5.56851C14.5822 5.49233 14.625 5.38899 14.625 5.28125V2.03125C14.625 1.92351 14.5822 1.82017 14.506 1.74399C14.4298 1.6678 14.3265 1.625 14.2188 1.625H11.7812C11.6735 1.625 11.5702 1.6678 11.494 1.74399C11.4178 1.82017 11.375 1.92351 11.375 2.03125V5.28125C11.375 5.38899 11.4178 5.49233 11.494 5.56851C11.5702 5.6447 11.6735 5.6875 11.7812 5.6875ZM12.1875 2.4375H13.8125V4.875H12.1875V2.4375Z" fill="#231F20"/>
<path d="M15.8438 5.6875H18.2812C18.389 5.6875 18.4923 5.6447 18.5685 5.56851C18.6447 5.49233 18.6875 5.38899 18.6875 5.28125V2.03125C18.6875 1.92351 18.6447 1.82017 18.5685 1.74399C18.4923 1.6678 18.389 1.625 18.2812 1.625H15.8438C15.736 1.625 15.6327 1.6678 15.5565 1.74399C15.4803 1.82017 15.4375 1.92351 15.4375 2.03125V5.28125C15.4375 5.38899 15.4803 5.49233 15.5565 5.56851C15.6327 5.6447 15.736 5.6875 15.8438 5.6875ZM16.25 2.4375H17.875V4.875H16.25V2.4375Z" fill="#231F20"/>
<path d="M7.71875 5.6875H10.1562C10.264 5.6875 10.3673 5.6447 10.4435 5.56851C10.5197 5.49233 10.5625 5.38899 10.5625 5.28125V2.03125C10.5625 1.92351 10.5197 1.82017 10.4435 1.74399C10.3673 1.6678 10.264 1.625 10.1562 1.625H7.71875C7.61101 1.625 7.50767 1.6678 7.43149 1.74399C7.3553 1.82017 7.3125 1.92351 7.3125 2.03125V5.28125C7.3125 5.38899 7.3553 5.49233 7.43149 5.56851C7.50767 5.6447 7.61101 5.6875 7.71875 5.6875ZM8.125 2.4375H9.75V4.875H8.125V2.4375Z" fill="#231F20"/>
<path d="M23.5258 10.3959C22.3639 7.77969 22.307 7.35719 21.5555 6.86562C21.1847 6.6271 20.7532 6.50018 20.3123 6.5V0.40625C20.3123 0.298506 20.2695 0.195175 20.1933 0.118988C20.1172 0.0428012 20.0138 0 19.9061 0L6.09358 0C5.98584 0 5.88251 0.0428012 5.80632 0.118988C5.73013 0.195175 5.68733 0.298506 5.68733 0.40625C5.68733 12.6344 5.70765 11.7812 5.64265 11.7812C5.21341 11.7899 4.80077 11.9486 4.47644 12.2299C4.1521 12.5112 3.93658 12.8972 3.86733 13.3209C3.21327 17.2453 3.17264 17.1234 3.34733 17.3266C3.38547 17.3712 3.43282 17.407 3.48612 17.4315C3.53942 17.456 3.5974 17.4688 3.65608 17.4688C4.27253 17.4137 4.84894 17.1399 5.28108 16.6969V25.5938C5.28108 25.7015 5.32388 25.8048 5.40007 25.881C5.47626 25.9572 5.57959 26 5.68733 26H20.3123C20.4201 26 20.5234 25.9572 20.5996 25.881C20.6758 25.8048 20.7186 25.7015 20.7186 25.5938V11.5903C21.6452 11.6227 22.5616 11.3887 23.3592 10.9159C23.4466 10.8654 23.5121 10.7842 23.5429 10.6881C23.5737 10.592 23.5676 10.4878 23.5258 10.3959ZM6.49983 0.8125H19.4998V6.74375C18.5248 7.08094 18.6873 7.08906 18.6873 6.90625C18.6873 6.79851 18.6445 6.69517 18.5683 6.61899C18.4922 6.5428 18.3888 6.5 18.2811 6.5H15.8436C15.7358 6.5 15.6325 6.5428 15.5563 6.61899C15.4801 6.69517 15.4373 6.79851 15.4373 6.90625V8.29156L14.6248 8.6125V6.90625C14.6248 6.79851 14.582 6.69517 14.5058 6.61899C14.4297 6.5428 14.3263 6.5 14.2186 6.5H11.7811C11.6733 6.5 11.57 6.5428 11.4938 6.61899C11.4176 6.69517 11.3748 6.79851 11.3748 6.90625V9.88406C10.4161 10.2497 10.5623 10.205 10.5623 10.1562V6.90625C10.5623 6.79851 10.5195 6.69517 10.4433 6.61899C10.3672 6.5428 10.2638 6.5 10.1561 6.5H7.71858C7.61084 6.5 7.50751 6.5428 7.43132 6.61899C7.35513 6.69517 7.31233 6.79851 7.31233 6.90625V10.1562C7.31233 10.264 7.35513 10.3673 7.43132 10.4435C7.50751 10.5197 7.61084 10.5625 7.71858 10.5625H9.5589C8.43765 10.9688 7.3814 11.3222 6.49983 11.5659V0.8125ZM17.8748 7.33687L16.2498 7.97063V7.3125C18.0576 7.3125 17.8748 7.3125 17.8748 7.33687ZM12.1873 9.57125V7.3125H13.8123V8.9375L12.1873 9.57125ZM9.74983 9.75H8.12483V7.3125H9.74983V9.75ZM6.09358 25.1875V15.9047C6.58272 15.3401 7.1137 14.8132 7.68202 14.3284C7.81972 14.4413 7.96802 14.5406 8.12483 14.625V22.3438C8.12483 22.4515 8.16763 22.5548 8.24382 22.631C8.32001 22.7072 8.42334 22.75 8.53108 22.75H17.4686C17.5763 22.75 17.6797 22.7072 17.7558 22.631C17.832 22.5548 17.8748 22.4515 17.8748 22.3438C17.8748 9.79063 17.8261 10.7047 17.9764 10.6275C18.5568 11.0369 19.2127 11.3268 19.9061 11.4806V25.1875H6.09358ZM11.4195 13.0528C12.8251 15.1531 14.6248 15.4375 14.6248 14.625C14.6248 13.0284 16.0183 11.8259 17.0623 11.1516V21.9375H8.93733V14.9053C10.0505 15.0028 10.8833 14.04 11.4195 13.0528ZM18.2811 9.85156C18.2257 9.80487 18.1588 9.77384 18.0874 9.7617C18.0159 9.74956 17.9426 9.75674 17.8748 9.7825C17.7164 9.85156 14.2186 11.3791 13.8489 14.1619C12.878 13.8694 12.0208 12.5369 11.7445 12.0047C11.709 11.9341 11.6536 11.8754 11.5852 11.8358C11.5169 11.7962 11.4384 11.7774 11.3595 11.7818C11.2806 11.7861 11.2047 11.8133 11.141 11.8601C11.0773 11.9069 11.0287 11.9713 11.0011 12.0453C10.8183 12.5491 10.152 13.8938 9.2989 14.0766C9.09051 14.1182 8.87429 14.0926 8.6814 14.0034C8.05983 13.7353 7.93796 13.1909 7.51546 13.4591C6.33327 14.1741 5.18765 15.9738 4.16796 16.51L4.67983 13.4509C4.71924 13.212 4.84208 12.9947 5.02655 12.8378C5.21101 12.6808 5.44514 12.5944 5.68733 12.5938C7.20671 12.5938 18.0901 8.01125 20.3692 7.3125C20.6333 7.32483 20.8896 7.40607 21.1126 7.54812C21.6001 7.865 21.6042 8.06406 22.632 10.3919C21.9311 10.7274 21.1486 10.8548 20.3774 10.7591C19.6062 10.6633 18.8787 10.3483 18.2811 9.85156Z" fill="#231F20"/>
</g>
<defs>
<clipPath id="clip0_507_905">
<rect width="26" height="26" fill="white"/>
</clipPath>
</defs>
</svg>
