<svg width="19" height="25" viewBox="0 0 19 25" fill="none" xmlns="http://www.w3.org/2000/svg">
<path d="M9.3634 17.3829C10.135 17.3829 10.8893 17.1563 11.5309 16.7318C12.1725 16.3073 12.6726 15.7039 12.9679 14.998C13.2632 14.2921 13.3405 13.5153 13.1899 12.7659C13.0394 12.0165 12.6678 11.3281 12.1222 10.7878C11.5765 10.2475 10.8814 9.87955 10.1245 9.73048C9.36772 9.58142 8.58327 9.65792 7.87036 9.95033C7.15746 10.2427 6.54813 10.7379 6.11943 11.3732C5.69073 12.0085 5.46191 12.7555 5.46191 13.5196C5.46191 14.5442 5.87296 15.5268 6.60463 16.2513C7.3363 16.9759 8.32866 17.3829 9.3634 17.3829ZM9.3634 10.4289C9.98071 10.4289 10.5842 10.6102 11.0974 10.9498C11.6107 11.2894 12.0108 11.7721 12.247 12.3368C12.4832 12.9016 12.545 13.523 12.4246 14.1225C12.3042 14.7221 12.0069 15.2728 11.5704 15.705C11.1339 16.1372 10.5778 16.4316 9.97231 16.5508C9.36686 16.6701 8.73929 16.6089 8.16897 16.375C7.59865 16.141 7.11119 15.7449 6.76822 15.2366C6.42526 14.7284 6.24221 14.1308 6.24221 13.5196C6.24221 12.6999 6.57105 11.9138 7.15638 11.3341C7.74172 10.7545 8.53561 10.4289 9.3634 10.4289Z" fill="#231F20"/>
<path d="M16.7764 2.31852C16.6203 2.31852 16.7764 2.60827 15.9961 0.263231C15.9689 0.183268 15.9161 0.114301 15.8456 0.066864C15.7752 0.0194272 15.691 -0.00387185 15.6059 0.000525395H3.12119C3.03939 0.000316327 2.95961 0.025567 2.8931 0.0727084C2.82659 0.11985 2.77672 0.186497 2.75055 0.263231L2.05998 2.31852C1.79477 2.30379 1.52931 2.34285 1.27988 2.4333C1.03045 2.52376 0.802302 2.66371 0.609427 2.84457C0.416552 3.02543 0.263011 3.24339 0.158218 3.48509C0.0534241 3.72679 -0.000414455 3.98714 2.4023e-06 4.25017V5.02284C2.4023e-06 5.1253 0.0411073 5.22357 0.114274 5.29602C0.187441 5.36847 0.286677 5.40917 0.390151 5.40917H0.815412L1.09242 8.11349C0.990219 8.1233 0.896043 8.1726 0.830311 8.2507C0.76458 8.32881 0.732591 8.42942 0.741284 8.53073L1.75567 18.5754C1.76537 18.671 1.81072 18.7596 1.88287 18.8239C1.95501 18.8882 2.04876 18.9235 2.14582 18.9231C2.20044 18.9231 2.12241 18.3436 2.73104 24.3703C2.74074 24.466 2.78609 24.5546 2.85824 24.6189C2.93038 24.6832 3.02413 24.7185 3.12119 24.718H15.6059C15.703 24.7185 15.7967 24.6832 15.8689 24.6189C15.941 24.5546 15.9864 24.466 15.9961 24.3703L16.5462 18.9308C16.6491 18.9405 16.7517 18.9093 16.8315 18.8441C16.9112 18.7789 16.9616 18.685 16.9714 18.5831C18.0756 7.64217 18.0522 8.42256 17.8844 8.24098C17.5567 7.89715 17.5567 8.88616 17.9117 5.40917H18.337C18.4404 5.40917 18.5397 5.36847 18.6128 5.29602C18.686 5.22357 18.7271 5.1253 18.7271 5.02284V4.25017C18.7271 3.73787 18.5216 3.24654 18.1558 2.88429C17.7899 2.52203 17.2937 2.31852 16.7764 2.31852ZM3.40209 0.773189H15.325L15.8439 2.31852H2.8832L3.40209 0.773189ZM15.2548 23.9531H3.47232L2.96903 18.9308H15.7581L15.2548 23.9531ZM16.2302 18.1581H2.49695L1.56059 8.88616H17.1665L16.2302 18.1581ZM16.8544 8.11349H1.87271L1.59961 5.40917H17.1275L16.8544 8.11349ZM17.9468 4.63651H0.780299V4.25017C0.780299 3.94279 0.903613 3.648 1.12311 3.43064C1.34261 3.21329 1.64032 3.09118 1.95074 3.09118H16.7764C17.0868 3.09118 17.3845 3.21329 17.604 3.43064C17.8235 3.648 17.9468 3.94279 17.9468 4.25017V4.63651Z" fill="#231F20"/>
</svg>
