<svg width="31" height="22" viewBox="0 0 31 22" fill="none" xmlns="http://www.w3.org/2000/svg">
<path d="M27.0737 9.34589C26.8742 6.05338 23.7109 4.682 22.7324 4.33765C21.849 0.471221 18.0492 0 15.1993 0C12.3494 0 8.5496 0.471221 7.68989 4.33765C6.71143 4.682 3.54808 6.05338 3.34859 9.34589C2.63138 10.0708 0 13.0311 0 17.5198C0 20.329 0.64122 21.7487 1.89991 21.7487C3.58608 21.7487 4.84477 18.2447 7.93213 18.1239C8.39463 18.522 8.94109 18.7326 9.49955 18.728C11.7177 18.728 12.6392 17.9427 13.0239 17.266C13.6641 17.8253 14.4226 18.1247 15.1993 18.1247C15.976 18.1247 16.7344 17.8253 17.3747 17.266C17.7594 17.9427 18.6809 18.728 20.899 18.728C21.4575 18.7326 22.0039 18.522 22.4664 18.1239C25.5443 18.2326 26.8172 21.7487 28.4987 21.7487C29.7573 21.7487 30.3986 20.329 30.3986 17.5198C30.3986 13.0311 27.7672 10.0708 27.0737 9.34589ZM3.41509 19.4167C2.81662 20.0209 2.29889 20.5404 1.89991 20.5404C1.26819 20.5404 0.949955 19.5255 0.949955 17.5198C0.949955 13.7017 3.22035 11.0435 3.89007 10.3427C5.14401 11.0133 5.69023 14.8435 7.02967 17.0425C5.68524 17.4286 4.44089 18.2459 3.41509 19.4167ZM9.49955 17.5198C6.72568 17.5198 6.60219 10.5179 4.29855 9.23714C4.58828 6.82062 7.25291 5.74527 7.98912 5.4855C9.45205 6.77229 11.7082 14.1185 12.3352 16.3598C12.2544 16.6317 11.8174 17.5198 9.49955 17.5198ZM13.2329 15.9671C12.4824 13.2909 10.3545 6.33732 8.61609 4.56722C9.16232 2.24736 11.2142 1.20826 15.1993 1.20826C19.1843 1.20826 21.2362 2.24736 21.7825 4.56722C20.0441 6.33732 17.9114 13.2909 17.1657 15.9671C16.623 16.5774 15.9237 16.9143 15.1993 16.9143C14.4749 16.9143 13.7755 16.5774 13.2329 15.9671ZM18.0492 16.3659C18.6524 14.2152 20.899 6.78438 22.3952 5.49154C23.1314 5.75131 25.796 6.84479 26.0858 9.24318C23.7916 10.5239 23.6681 17.5198 20.899 17.5198C18.5526 17.5198 18.1346 16.6075 18.0492 16.3659ZM28.4987 20.5404C28.0997 20.5404 27.582 20.0209 26.9835 19.4167C25.9577 18.2459 24.7133 17.4286 23.3689 17.0425C24.7083 14.8495 25.2688 11.0012 26.5085 10.3427C27.1782 11.0435 29.4486 13.7017 29.4486 17.5198C29.4486 19.5255 29.1304 20.5404 28.4987 20.5404Z" fill="#231F20"/>
</svg>
