<svg width="69" height="69" viewBox="0 0 69 69" fill="none" xmlns="http://www.w3.org/2000/svg">
<path d="M34.5 57.5C35.3625 57.5 36.1891 57.4521 36.9797 57.3563C37.7703 57.2604 38.5729 57.1167 39.3875 56.925L35.9375 51.75H25.875V48.875C25.875 47.2938 26.438 45.9401 27.5641 44.8141C28.6901 43.688 30.0437 43.125 31.625 43.125H37.375V34.5H31.625C30.8104 34.5 30.1276 34.2245 29.5766 33.6734C29.0255 33.1224 28.75 32.4396 28.75 31.625V25.875H27.4562C26.2104 25.875 25.1562 25.4557 24.2937 24.6172C23.4312 23.7786 23 22.7365 23 21.4906C23 21.0594 23.0599 20.6281 23.1797 20.1969C23.2995 19.7656 23.4792 19.3583 23.7188 18.975L28.175 12.4344C23.3354 13.824 19.3464 16.5312 16.2078 20.5562C13.0693 24.5812 11.5 29.2292 11.5 34.5H14.375V31.625C14.375 30.8104 14.6505 30.1276 15.2016 29.5766C15.7526 29.0255 16.4354 28.75 17.25 28.75H23C23.8146 28.75 24.4974 29.0255 25.0484 29.5766C25.5995 30.1276 25.875 30.8104 25.875 31.625V34.5C25.875 35.3146 25.5995 35.9974 25.0484 36.5484C24.4974 37.0995 23.8146 37.375 23 37.375V40.25C23 41.8312 22.437 43.1849 21.3109 44.3109C20.1849 45.437 18.8313 46 17.25 46H14.5906C16.6031 49.45 19.3583 52.2292 22.8562 54.3375C26.3542 56.4458 30.2354 57.5 34.5 57.5ZM56.35 41.5438C56.7333 40.4417 57.0208 39.3036 57.2125 38.1297C57.4042 36.9557 57.5 35.7458 57.5 34.5C57.5 29.1333 55.8708 24.4016 52.6125 20.3047C49.3542 16.2078 45.2333 13.5125 40.25 12.2188V20.125C41.8312 20.125 43.1849 20.688 44.3109 21.8141C45.437 22.9401 46 24.2937 46 25.875V31.625C46.9104 31.625 47.725 31.7328 48.4437 31.9484C49.1625 32.1641 49.8573 32.6073 50.5281 33.2781L56.35 41.5438ZM34.5 63.25C30.5229 63.25 26.7854 62.4953 23.2875 60.9859C19.7896 59.4766 16.7469 57.4281 14.1594 54.8406C11.5719 52.2531 9.52344 49.2104 8.01406 45.7125C6.50469 42.2146 5.75 38.4771 5.75 34.5C5.75 30.5229 6.50469 26.7854 8.01406 23.2875C9.52344 19.7896 11.5719 16.7469 14.1594 14.1594C16.7469 11.5719 19.7896 9.52344 23.2875 8.01406C26.7854 6.50469 30.5229 5.75 34.5 5.75C38.4771 5.75 42.2146 6.50469 45.7125 8.01406C49.2104 9.52344 52.2531 11.5719 54.8406 14.1594C57.4281 16.7469 59.4766 19.7896 60.9859 23.2875C62.4953 26.7854 63.25 30.5229 63.25 34.5C63.25 38.4771 62.4953 42.2146 60.9859 45.7125C59.4766 49.2104 57.4281 52.2531 54.8406 54.8406C52.2531 57.4281 49.2104 59.4766 45.7125 60.9859C42.2146 62.4953 38.4771 63.25 34.5 63.25Z" fill="#1F1F1F"/>
</svg>
