<svg width="72" height="66" viewBox="0 0 72 66" fill="none" xmlns="http://www.w3.org/2000/svg">
<path d="M35.87 16.5C34.2259 16.5 32.8186 15.9615 31.6478 14.8844C30.4771 13.8073 29.8917 12.5125 29.8917 11C29.8917 9.4875 30.4771 8.19271 31.6478 7.11562C32.8186 6.03854 34.2259 5.5 35.87 5.5C37.514 5.5 38.9214 6.03854 40.0921 7.11562C41.2628 8.19271 41.8482 9.4875 41.8482 11C41.8482 12.5125 41.2628 13.8073 40.0921 14.8844C38.9214 15.9615 37.514 16.5 35.87 16.5ZM26.9026 60.5V24.75C23.9134 24.5208 20.8745 24.1771 17.7857 23.7187C14.6969 23.2604 11.7576 22.6875 8.96777 22L10.4623 16.5C14.3482 17.4625 18.4832 18.1615 22.8672 18.5969C27.2513 19.0323 31.5855 19.25 35.87 19.25C40.1544 19.25 44.4886 19.0323 48.8727 18.5969C53.2567 18.1615 57.3917 17.4625 61.2776 16.5L62.7721 22C59.9823 22.6875 57.043 23.2604 53.9542 23.7187C50.8654 24.1771 47.8265 24.5208 44.8373 24.75V60.5H38.8591V44H32.8808V60.5H26.9026Z" fill="#1F1F1F"/>
</svg>
