<svg width="27" height="27" viewBox="0 0 27 27" fill="none" xmlns="http://www.w3.org/2000/svg">
<path d="M22.6317 7.36387C22.6317 6.40294 21.8301 5.62109 20.8449 5.62109C19.8597 5.62109 19.0581 6.40294 19.0581 7.36387C19.0581 8.3248 19.8597 9.10665 20.8449 9.10665C21.8301 9.10665 22.6317 8.3248 22.6317 7.36387ZM19.8522 7.36387C19.8522 6.82999 20.2975 6.39566 20.8449 6.39566C21.3923 6.39566 21.8376 6.82999 21.8376 7.36387C21.8376 7.89776 21.3923 8.33208 20.8449 8.33208C20.2975 8.33208 19.8522 7.89776 19.8522 7.36387Z" fill="#DC5461"/>
<path d="M21.4723 2.32031C20.5392 2.32031 19.6604 2.72056 19.0614 3.41824C18.7808 3.69956 17.4556 5.57443 14.7525 7.07415C14.5618 7.17995 14.4952 7.41635 14.6036 7.6023C14.7121 7.78825 14.9545 7.85305 15.1451 7.74751C17.994 6.16687 19.3948 4.19136 19.6702 3.91577C20.118 3.39412 20.7749 3.09493 21.4723 3.09493C22.8617 3.09493 23.8668 4.22632 23.8227 5.46919L23.7602 7.22281C23.5887 12.037 21.4126 16.4176 17.9759 19.5035C16.8448 17.3341 14.7949 15.8552 12.4797 15.3636C9.8267 14.8011 7.70108 12.8217 6.98901 10.2799C7.73115 9.9085 8.54196 9.67148 9.40359 9.57445C10.8872 9.40756 12.3282 9.03174 13.6863 8.45753C13.8875 8.37253 13.9799 8.14445 13.8927 7.94822C13.8055 7.75195 13.5715 7.66163 13.3705 7.74694C12.0839 8.29084 10.7187 8.64683 9.31263 8.80505C8.24077 8.92568 7.23799 9.24232 6.33221 9.7462C6.18011 9.83084 6.10281 10.0026 6.14188 10.1691C6.84204 13.1494 9.24333 15.4702 12.3109 16.1205C14.6742 16.6224 16.5723 18.2153 17.4766 20.2911C17.5822 20.5336 17.8995 20.6036 18.1022 20.4321C21.8843 17.2325 24.366 12.5223 24.5538 7.24977L24.6162 5.49615C24.6756 3.83036 23.3284 2.32031 21.4723 2.32031Z" fill="#DC5461"/>
<path d="M10.2422 18.5388C10.5355 18.1633 10.8679 17.7377 11.0942 17.0021C11.16 16.788 11.0268 16.5637 10.8031 16.5134C8.10725 15.9078 5.96018 13.8182 5.33319 11.1902C5.30042 11.0527 5.19348 10.9436 5.05419 10.9052C4.91474 10.8668 4.76523 10.9056 4.66369 11.006C2.23571 13.4081 1.5572 17.2228 3.55211 20.3859C4.79054 22.3493 6.88418 23.6843 9.29977 23.9631C9.53817 23.9902 9.74655 23.8075 9.74342 23.5735C9.7259 22.2445 9.09081 21.8929 9.3993 20.3131C9.58036 19.3862 9.90193 18.9746 10.2422 18.5388ZM8.61925 20.1684C8.32442 21.6781 8.77072 22.2969 8.90805 23.1216C6.96344 22.7645 5.26712 21.6267 4.22845 19.9801C2.59545 17.3907 2.93571 14.2644 4.76052 12.0617C5.59398 14.5143 7.61791 16.433 10.193 17.159C9.74575 18.1737 8.95835 18.4318 8.61925 20.1684Z" fill="#DC5461"/>
<path d="M12.5934 17.0951C12.384 16.9996 12.1352 17.0986 12.0539 17.3097C11.8785 17.7647 11.6526 18.054 11.4134 18.3602C11.05 18.8256 10.6381 19.353 10.4221 20.4593C10.1051 22.0823 10.6436 22.6676 10.7378 23.6111C10.7595 23.8278 10.9596 23.9845 11.1823 23.9578C11.9255 23.8671 12.6545 23.6704 13.349 23.3731C14.4489 22.9023 15.5066 22.3258 16.4928 21.6596C16.6471 21.5553 16.7055 21.36 16.6329 21.1912C15.8534 19.3808 14.4188 17.9261 12.5934 17.0951ZM13.0299 22.6638C12.5254 22.8798 12.0008 23.0367 11.4661 23.1319C11.2976 22.3143 10.9603 21.8431 11.2022 20.6042C11.4841 19.1608 12.1157 18.9527 12.6214 17.9746C13.9994 18.695 15.1002 19.8235 15.7689 21.2029C14.9028 21.7652 13.983 22.2558 13.0299 22.6638Z" fill="#DC5461"/>
<path d="M21.4723 0C19.8322 0 18.2875 0.703205 17.2342 1.9295C17.0182 2.10693 14.4765 5.88703 9.03885 6.50018C6.47211 6.78904 4.14319 7.9906 2.48118 9.88354C-0.301672 13.0518 -0.915588 17.7331 1.52277 21.5986C4.19825 25.8407 9.66409 27.4826 14.3068 25.4956C15.2545 25.09 16.1772 24.6133 17.0495 24.0788C17.2352 23.965 17.2911 23.726 17.1745 23.5449C17.0578 23.3637 16.8127 23.3091 16.627 23.4229C15.7877 23.9372 14.8997 24.3959 13.9877 24.7863C9.71301 26.6158 4.64508 25.0708 2.1991 21.1927C0.0477459 17.7819 0.403358 13.4397 3.08429 10.3874C4.61575 8.6433 6.76271 7.53598 9.12996 7.26958C14.8924 6.61987 17.6166 2.61236 17.8431 2.42677C18.7449 1.37677 20.0677 0.774568 21.4723 0.774568C24.1534 0.774568 26.2959 2.94429 26.2029 5.5536L26.1404 7.30676C25.9267 13.3172 22.9244 18.9504 17.9134 22.5668C17.7371 22.6941 17.7 22.9366 17.8304 23.1085C17.9609 23.2805 18.2094 23.3167 18.3858 23.1895C23.4409 19.5412 26.7055 13.7613 26.9341 7.33366L26.9966 5.58056C27.1054 2.52964 24.5988 0 21.4723 0Z" fill="#283954"/>
</svg>
