<svg width="29" height="28" viewBox="0 0 29 28" fill="none" xmlns="http://www.w3.org/2000/svg">
<path d="M7.95713 4.3125C7.58685 4.3125 7.22489 4.41165 6.91701 4.59741C6.60913 4.78318 6.36917 5.04721 6.22747 5.35613C6.08577 5.66504 6.0487 6.00496 6.12093 6.3329C6.19317 6.66084 6.37148 6.96208 6.63331 7.19851C6.89514 7.43494 7.22872 7.59595 7.59189 7.66118C7.95505 7.72642 8.33149 7.69294 8.67358 7.56498C9.01567 7.43702 9.30807 7.22034 9.51378 6.94232C9.7195 6.66431 9.8293 6.33745 9.8293 6.00308C9.8293 5.55471 9.63206 5.12471 9.28096 4.80766C8.92986 4.49061 8.45366 4.3125 7.95713 4.3125ZM7.95713 6.84838C7.77199 6.84838 7.59101 6.7988 7.43707 6.70592C7.28313 6.61304 7.16315 6.48102 7.0923 6.32656C7.02145 6.17211 7.00291 6.00215 7.03903 5.83818C7.07515 5.67421 7.16431 5.52359 7.29522 5.40537C7.42613 5.28716 7.59293 5.20665 7.77451 5.17403C7.95609 5.14142 8.14431 5.15816 8.31536 5.22214C8.4864 5.28611 8.6326 5.39446 8.73546 5.53347C8.83832 5.67247 8.89322 5.8359 8.89322 6.00308C8.89322 6.22727 8.79459 6.44227 8.61904 6.6008C8.44349 6.75932 8.2054 6.84838 7.95713 6.84838Z" fill="#231F20"/>
<path d="M28.8927 12.0534C28.6914 11.8632 29.3607 11.9224 19.1902 11.9224C19.1902 8.30454 19.1902 9.07376 19.1902 8.96387C19.1902 8.85398 19.3961 9.24704 15.9139 2.9623V2.20153C15.9139 1.86525 15.7659 1.54275 15.5026 1.30496C15.2393 1.06718 14.8821 0.933594 14.5097 0.933594L5.14889 0.933594C4.7765 0.933594 4.41935 1.06718 4.15602 1.30496C3.8927 1.54275 3.74477 1.86525 3.74477 2.20153V2.93271C-0.121264 9.0484 0.000426852 8.79904 0.000426852 8.96387V27.5603C0.000426852 27.6724 0.0497383 27.7799 0.137513 27.8592C0.225288 27.9384 0.344337 27.9829 0.468469 27.9829C20.1262 27.9829 18.9281 28.0928 19.1293 27.7589C19.7331 28.0675 19.4148 27.9829 26.2857 27.9829C26.7649 27.9836 27.2261 27.8183 27.5744 27.5211C27.9227 27.2239 28.1315 26.8174 28.1579 26.3853C29.0939 11.1659 29.0939 12.2521 28.8927 12.0534ZM11.7015 19.9527C6.52026 19.5596 5.85096 12.8142 0.936512 12.3958V9.38652H11.7015V19.9527ZM0.936512 13.2495C5.1723 13.7102 5.99605 20.4345 11.7015 20.7768V22.8901C6.41729 22.6999 5.75267 19.3398 0.936512 19.1158V13.2495ZM12.6376 20.798H17.8375L17.9686 22.9112H12.6376V20.798ZM17.786 11.9224C17.7221 11.9223 17.6589 11.934 17.6002 11.9568C17.5415 11.9796 17.4886 12.013 17.4447 12.055C17.4009 12.097 17.367 12.1466 17.3452 12.2009C17.3234 12.2551 17.3142 12.3128 17.318 12.3704L17.786 19.9527H12.6376V9.38652H18.2541V11.9224H17.786ZM12.9278 8.54122L15.4458 3.99355L17.9639 8.54122H12.9278ZM4.68085 2.20153C4.68085 2.08944 4.73016 1.98194 4.81794 1.90268C4.90571 1.82341 5.02476 1.77889 5.14889 1.77889H14.5097C14.6339 1.77889 14.7529 1.82341 14.8407 1.90268C14.9285 1.98194 14.9778 2.08944 14.9778 2.20153V2.62418H4.68085V2.20153ZM4.48427 3.46947H14.6876L11.8793 8.54122H1.2735L4.48427 3.46947ZM0.936512 19.9738C5.30335 20.202 6.11306 23.5621 11.7015 23.748V27.1292H0.936512V19.9738ZM12.6376 27.1377V23.7565H18.0201C18.3524 29.1917 18.2541 25.6711 18.2541 27.1377H12.6376ZM27.2218 26.3389C27.2086 26.5549 27.1042 26.7581 26.93 26.9067C26.7559 27.0553 26.5253 27.138 26.2857 27.1377H20.0514C19.8118 27.138 19.5812 27.0553 19.407 26.9067C19.2329 26.7581 19.1285 26.5549 19.1153 26.3389L18.2822 12.7677H28.0549L27.2218 26.3389Z" fill="#231F20"/>
<path d="M20.4639 25.869H25.8745C25.9986 25.869 26.1176 25.8244 26.2054 25.7452C26.2932 25.6659 26.3425 25.5584 26.3425 25.4463C26.8761 16.6891 26.9041 17.2935 26.7076 17.1033C26.511 16.9131 26.8854 16.9934 19.9724 16.9934C19.8483 16.9934 19.7293 17.0379 19.6415 17.1172C19.5537 17.1964 19.5044 17.3039 19.5044 17.416L19.9724 25.4463C19.9724 25.5036 19.9852 25.5604 20.0102 25.6131C20.0351 25.6658 20.0717 25.7134 20.1177 25.7529C20.1637 25.7924 20.2181 25.8231 20.2776 25.8431C20.3371 25.863 20.4005 25.8718 20.4639 25.869ZM25.8698 17.8387L25.4298 25.0237H20.9085L20.4686 17.8387H25.8698Z" fill="#231F20"/>
</svg>
