<svg width="220" height="112" viewBox="0 0 220 112" fill="none" xmlns="http://www.w3.org/2000/svg">
<path d="M110.684 55.825C110.684 86.6563 85.9063 111.65 55.3419 111.65C24.7774 111.65 1.39183e-09 86.6563 8.96631e-10 55.825C4.01435e-10 24.9937 24.7774 -3.97961e-10 55.3419 -8.88871e-10C85.9063 -1.37978e-09 110.684 24.9937 110.684 55.825ZM31.1941 55.825C31.1941 69.2779 42.0054 80.1836 55.3419 80.1836C68.6783 80.1836 79.4896 69.2779 79.4896 55.825C79.4896 42.3721 68.6783 31.4664 55.3419 31.4664C42.0054 31.4664 31.1941 42.3721 31.1941 55.825Z" fill="#98CE8C"/>
<path d="M110.684 55.825C110.684 43.8172 106.845 32.1294 99.7386 22.4964C92.6317 12.8634 82.6351 5.79865 71.2324 2.35078C59.8298 -1.09708 47.629 -0.744303 36.4409 3.35676C25.2527 7.45782 15.6737 15.0886 9.1255 25.1164C2.57732 35.1442 -0.590968 47.0346 0.0908989 59.0227C0.772766 71.0108 5.26844 82.4576 12.9106 91.6642C20.5529 100.871 30.9342 107.346 42.5139 110.13C54.0936 112.913 66.2544 111.856 77.1913 107.115L64.8756 78.2048C60.1034 80.2734 54.7972 80.7347 49.7445 79.5202C44.6919 78.3057 40.1621 75.4802 36.8275 71.463C33.4929 67.4458 31.5313 62.4512 31.2337 57.2203C30.9362 51.9894 32.3187 46.8012 35.1759 42.4256C38.0331 38.0501 42.2128 34.7205 47.0946 32.9311C51.9764 31.1416 57.3001 30.9877 62.2755 32.4921C67.2509 33.9966 71.6129 37.0792 74.7139 41.2824C77.8149 45.4857 79.4897 50.5855 79.4897 55.825L110.684 55.825Z" fill="#FEE072"/>
<path d="M110.684 55.825C110.684 48.494 109.252 41.2347 106.471 34.4617C103.69 27.6887 99.6134 21.5346 94.4745 16.3508C89.3355 11.1669 83.2346 7.05489 76.5203 4.24942C69.8059 1.44396 62.6095 -3.21456e-07 55.3419 -8.88811e-10L55.3419 31.4664C58.513 31.4664 61.6531 32.0964 64.5828 33.3206C67.5126 34.5447 70.1746 36.339 72.4169 38.6009C74.6593 40.8628 76.438 43.548 77.6515 46.5034C78.8651 49.4587 79.4896 52.6262 79.4896 55.825L110.684 55.825Z" fill="#E44646"/>
<path d="M81.612 32.156C81.196 32.156 80.808 32.068 80.448 31.892C80.088 31.708 79.776 31.436 79.512 31.076C79.248 30.708 79.04 30.252 78.888 29.708C78.744 29.164 78.672 28.528 78.672 27.8C78.672 26.944 78.76 26.212 78.936 25.604C79.112 24.996 79.352 24.504 79.656 24.128C79.96 23.752 80.308 23.48 80.7 23.312C81.092 23.136 81.5 23.048 81.924 23.048C82.38 23.048 82.776 23.132 83.112 23.3C83.448 23.468 83.74 23.684 83.988 23.948L83.364 24.62C83.196 24.412 82.988 24.248 82.74 24.128C82.492 24.008 82.236 23.948 81.972 23.948C81.556 23.948 81.176 24.072 80.832 24.32C80.488 24.56 80.212 24.96 80.004 25.52C79.804 26.08 79.704 26.84 79.704 27.8C79.704 28.552 79.776 29.188 79.92 29.708C80.072 30.228 80.288 30.624 80.568 30.896C80.856 31.16 81.204 31.292 81.612 31.292C81.9 31.292 82.152 31.208 82.368 31.04C82.592 30.872 82.768 30.64 82.896 30.344C83.032 30.04 83.1 29.692 83.1 29.3C83.1 28.9 83.04 28.556 82.92 28.268C82.808 27.972 82.636 27.748 82.404 27.596C82.172 27.436 81.876 27.356 81.516 27.356C81.236 27.356 80.932 27.448 80.604 27.632C80.276 27.808 79.964 28.116 79.668 28.556L79.632 27.692C79.816 27.452 80.02 27.248 80.244 27.08C80.468 26.904 80.704 26.772 80.952 26.684C81.208 26.588 81.456 26.54 81.696 26.54C82.192 26.54 82.62 26.644 82.98 26.852C83.348 27.052 83.632 27.356 83.832 27.764C84.04 28.172 84.144 28.684 84.144 29.3C84.144 29.868 84.028 30.368 83.796 30.8C83.564 31.224 83.256 31.556 82.872 31.796C82.496 32.036 82.076 32.156 81.612 32.156Z" fill="white"/>
<path d="M88.156 81.156C87.7 81.156 87.296 81.1 86.944 80.988C86.6 80.876 86.296 80.728 86.032 80.544C85.768 80.36 85.54 80.16 85.348 79.944L85.912 79.236C86.168 79.5 86.468 79.736 86.812 79.944C87.164 80.144 87.588 80.244 88.084 80.244C88.436 80.244 88.744 80.18 89.008 80.052C89.28 79.916 89.492 79.728 89.644 79.488C89.796 79.24 89.872 78.948 89.872 78.612C89.872 78.26 89.784 77.952 89.608 77.688C89.44 77.424 89.156 77.22 88.756 77.076C88.356 76.924 87.816 76.848 87.136 76.848L87.136 76.008C87.744 76.008 88.224 75.936 88.576 75.792C88.928 75.64 89.18 75.436 89.332 75.18C89.492 74.924 89.572 74.64 89.572 74.328C89.572 73.904 89.44 73.568 89.176 73.32C88.912 73.064 88.548 72.936 88.084 72.936C87.732 72.936 87.4 73.016 87.088 73.176C86.784 73.336 86.508 73.54 86.26 73.788L85.672 73.092C86.008 72.788 86.372 72.54 86.764 72.348C87.164 72.148 87.616 72.048 88.12 72.048C88.616 72.048 89.056 72.136 89.44 72.312C89.832 72.48 90.136 72.728 90.352 73.056C90.576 73.384 90.688 73.78 90.688 74.244C90.688 74.78 90.544 75.224 90.256 75.576C89.968 75.928 89.592 76.188 89.128 76.356L89.128 76.416C89.472 76.496 89.784 76.636 90.064 76.836C90.344 77.036 90.568 77.288 90.736 77.592C90.904 77.896 90.988 78.248 90.988 78.648C90.988 79.168 90.86 79.616 90.604 79.992C90.348 80.368 90.008 80.656 89.584 80.856C89.16 81.056 88.684 81.156 88.156 81.156Z" fill="white"/>
<path d="M17.36 59.156C16.816 59.156 16.332 59.056 15.908 58.856C15.484 58.656 15.152 58.38 14.912 58.028C14.672 57.676 14.552 57.272 14.552 56.816C14.552 56.424 14.628 56.072 14.78 55.76C14.94 55.44 15.144 55.168 15.392 54.944C15.64 54.712 15.896 54.524 16.16 54.38L16.16 54.332C15.84 54.108 15.56 53.832 15.32 53.504C15.088 53.168 14.972 52.768 14.972 52.304C14.972 51.856 15.076 51.468 15.284 51.14C15.5 50.804 15.788 50.544 16.148 50.36C16.516 50.168 16.928 50.072 17.384 50.072C17.888 50.072 18.32 50.172 18.68 50.372C19.04 50.572 19.316 50.844 19.508 51.188C19.7 51.532 19.796 51.932 19.796 52.388C19.796 52.692 19.732 52.98 19.604 53.252C19.484 53.524 19.336 53.768 19.16 53.984C18.984 54.192 18.808 54.368 18.632 54.512L18.632 54.572C18.888 54.716 19.128 54.892 19.352 55.1C19.576 55.3 19.756 55.548 19.892 55.844C20.036 56.132 20.108 56.48 20.108 56.888C20.108 57.304 19.992 57.688 19.76 58.04C19.536 58.384 19.216 58.656 18.8 58.856C18.392 59.056 17.912 59.156 17.36 59.156ZM17.96 54.224C18.256 53.96 18.48 53.68 18.632 53.384C18.784 53.08 18.86 52.768 18.86 52.448C18.86 52.152 18.8 51.888 18.68 51.656C18.568 51.424 18.4 51.24 18.176 51.104C17.952 50.96 17.684 50.888 17.372 50.888C16.964 50.888 16.628 51.016 16.364 51.272C16.1 51.528 15.968 51.872 15.968 52.304C15.968 52.648 16.06 52.94 16.244 53.18C16.436 53.412 16.684 53.612 16.988 53.78C17.292 53.94 17.616 54.088 17.96 54.224ZM17.372 58.34C17.716 58.34 18.012 58.276 18.26 58.148C18.516 58.02 18.712 57.844 18.848 57.62C18.992 57.396 19.064 57.14 19.064 56.852C19.064 56.556 19 56.304 18.872 56.096C18.744 55.88 18.572 55.692 18.356 55.532C18.148 55.372 17.904 55.228 17.624 55.1C17.344 54.972 17.048 54.848 16.736 54.728C16.384 54.952 16.092 55.236 15.86 55.58C15.636 55.916 15.524 56.296 15.524 56.72C15.524 57.024 15.604 57.3 15.764 57.548C15.924 57.796 16.144 57.992 16.424 58.136C16.712 58.272 17.028 58.34 17.372 58.34Z" fill="white"/>
<rect x="182" y="17" width="3" height="3" rx="1.5" fill="#E44646"/>
<rect x="182" y="12" width="3" height="3" rx="1.5" fill="#E44646"/>
<rect x="182" y="48" width="3" height="3" rx="1.5" fill="#FED43D"/>
<rect x="182" y="53" width="3" height="3" rx="1.5" fill="#FED43D"/>
<rect x="182" y="58" width="3" height="3" rx="1.5" fill="#FED43D"/>
<rect x="182" y="94" width="3" height="3" rx="1.5" fill="#98CE8C"/>
<rect x="182" y="7" width="3" height="3" rx="1.5" fill="#E44646"/>
<rect x="182" y="43" width="3" height="3" rx="1.5" fill="#FED43D"/>
<rect x="182" y="89" width="3" height="3" rx="1.5" fill="#98CE8C"/>
<rect x="182" y="27" width="3" height="3" rx="1.5" fill="#E44646"/>
<rect x="182" y="32" width="3" height="3" rx="1.5" fill="#E44646"/>
<rect x="182" y="22" width="3" height="3" rx="1.5" fill="#E44646"/>
<rect x="182" y="63" width="3" height="3" rx="1.5" fill="#FED43D"/>
<rect x="182" y="68" width="3" height="3" rx="1.5" fill="#FED43D"/>
<rect x="182" y="73" width="3" height="3" rx="1.5" fill="#FED43D"/>
<rect x="182" y="78" width="3" height="3" rx="1.5" fill="#FED43D"/>
<rect x="182" y="99" width="3" height="3" rx="1.5" fill="#98CE8C"/>
<path opacity="0.4" d="M44.696 63L44.696 59.36C44.696 59.1893 44.7013 58.9867 44.712 58.752C44.7227 58.512 44.7333 58.304 44.744 58.128L44.704 58.128C44.6347 58.288 44.56 58.448 44.48 58.608C44.4 58.768 44.3173 58.9307 44.232 59.096L43.312 60.568L46.496 60.568L46.496 61.464L42.168 61.464L42.168 60.664L44.376 57.072L45.792 57.072L45.792 63L44.696 63ZM49.0788 63.112C48.6788 63.112 48.3268 62.9973 48.0228 62.768C47.7241 62.5333 47.4894 62.1867 47.3188 61.728C47.1534 61.264 47.0708 60.6907 47.0708 60.008C47.0708 59.3307 47.1534 58.768 47.3188 58.32C47.4894 57.8667 47.7241 57.528 48.0228 57.304C48.3268 57.08 48.6788 56.968 49.0788 56.968C49.4841 56.968 49.8361 57.0827 50.1348 57.312C50.4334 57.536 50.6654 57.872 50.8307 58.32C51.0014 58.768 51.0868 59.3307 51.0868 60.008C51.0868 60.6907 51.0014 61.264 50.8307 61.728C50.6654 62.1867 50.4334 62.5333 50.1348 62.768C49.8361 62.9973 49.4841 63.112 49.0788 63.112ZM49.0788 62.192C49.2548 62.192 49.4094 62.1253 49.5428 61.992C49.6761 61.8587 49.7801 61.6347 49.8548 61.32C49.9294 61 49.9668 60.5627 49.9668 60.008C49.9668 59.4587 49.9294 59.0293 49.8548 58.72C49.7801 58.4053 49.6761 58.1867 49.5428 58.064C49.4094 57.936 49.2548 57.872 49.0788 57.872C48.9134 57.872 48.7614 57.936 48.6228 58.064C48.4894 58.1867 48.3828 58.4053 48.3028 58.72C48.2228 59.0293 48.1828 59.4587 48.1828 60.008C48.1828 60.5627 48.2228 61 48.3028 61.32C48.3828 61.6347 48.4894 61.8587 48.6228 61.992C48.7614 62.1253 48.9134 62.192 49.0788 62.192ZM51.5495 64.448L53.5415 56.552L54.3175 56.552L52.3335 64.448L51.5495 64.448ZM55.1873 63L55.1873 62.04L56.4673 62.04L56.4673 58.304L55.3873 58.304L55.3873 57.568C55.6859 57.5147 55.9419 57.4507 56.1553 57.376C56.3739 57.296 56.5766 57.1947 56.7633 57.072L57.6353 57.072L57.6353 62.04L58.7473 62.04L58.7473 63L55.1873 63ZM61.61 63.112C61.21 63.112 60.858 62.9973 60.554 62.768C60.2553 62.5333 60.0207 62.1867 59.85 61.728C59.6847 61.264 59.602 60.6907 59.602 60.008C59.602 59.3307 59.6847 58.768 59.85 58.32C60.0207 57.8667 60.2553 57.528 60.554 57.304C60.858 57.08 61.21 56.968 61.61 56.968C62.0153 56.968 62.3673 57.0827 62.666 57.312C62.9647 57.536 63.1967 57.872 63.362 58.32C63.5327 58.768 63.618 59.3307 63.618 60.008C63.618 60.6907 63.5327 61.264 63.362 61.728C63.1967 62.1867 62.9647 62.5333 62.666 62.768C62.3673 62.9973 62.0153 63.112 61.61 63.112ZM61.61 62.192C61.786 62.192 61.9407 62.1253 62.074 61.992C62.2073 61.8587 62.3113 61.6347 62.386 61.32C62.4607 61 62.498 60.5627 62.498 60.008C62.498 59.4587 62.4607 59.0293 62.386 58.72C62.3113 58.4053 62.2073 58.1867 62.074 58.064C61.9407 57.936 61.786 57.872 61.61 57.872C61.4447 57.872 61.2927 57.936 61.154 58.064C61.0207 58.1867 60.914 58.4053 60.834 58.72C60.754 59.0293 60.714 59.4587 60.714 60.008C60.714 60.5627 60.754 61 60.834 61.32C60.914 61.6347 61.0207 61.8587 61.154 61.992C61.2927 62.1253 61.4447 62.192 61.61 62.192ZM66.3288 63.112C65.9288 63.112 65.5768 62.9973 65.2728 62.768C64.9741 62.5333 64.7394 62.1867 64.5688 61.728C64.4034 61.264 64.3208 60.6907 64.3208 60.008C64.3208 59.3307 64.4034 58.768 64.5688 58.32C64.7394 57.8667 64.9741 57.528 65.2728 57.304C65.5768 57.08 65.9288 56.968 66.3288 56.968C66.7341 56.968 67.0861 57.0827 67.3848 57.312C67.6834 57.536 67.9154 57.872 68.0807 58.32C68.2514 58.768 68.3368 59.3307 68.3368 60.008C68.3368 60.6907 68.2514 61.264 68.0807 61.728C67.9154 62.1867 67.6834 62.5333 67.3848 62.768C67.0861 62.9973 66.7341 63.112 66.3288 63.112ZM66.3288 62.192C66.5048 62.192 66.6594 62.1253 66.7928 61.992C66.9261 61.8587 67.0301 61.6347 67.1048 61.32C67.1794 61 67.2168 60.5627 67.2168 60.008C67.2168 59.4587 67.1794 59.0293 67.1048 58.72C67.0301 58.4053 66.9261 58.1867 66.7928 58.064C66.6594 57.936 66.5048 57.872 66.3288 57.872C66.1634 57.872 66.0114 57.936 65.8728 58.064C65.7394 58.1867 65.6328 58.4053 65.5528 58.72C65.4728 59.0293 65.4328 59.4587 65.4328 60.008C65.4328 60.5627 65.4728 61 65.5528 61.32C65.6328 61.6347 65.7394 61.8587 65.8728 61.992C66.0114 62.1253 66.1634 62.192 66.3288 62.192Z" fill="black"/>
<path opacity="0.4" d="M51.336 47L52.736 47L52.736 47.864L51.336 47.864L51.336 47ZM52.456 45.304L53.528 45.304L53.528 49.584L52.456 49.584L52.456 45.304ZM48.584 49.88L53.528 49.88L53.528 52.632L48.584 52.632L48.584 49.88ZM52.48 50.712L49.632 50.712L49.632 51.792L52.48 51.792L52.48 50.712ZM49.04 45.984L49.904 45.984L49.904 46.456C49.904 46.92 49.8293 47.3627 49.68 47.784C49.5307 48.2053 49.3013 48.576 48.992 48.896C48.688 49.2107 48.296 49.4453 47.816 49.6L47.288 48.76C47.592 48.6587 47.8533 48.528 48.072 48.368C48.296 48.2027 48.4773 48.016 48.616 47.808C48.76 47.6 48.8667 47.3813 48.936 47.152C49.0053 46.9227 49.04 46.6907 49.04 46.456L49.04 45.984ZM49.264 45.984L50.112 45.984L50.112 46.448C50.112 46.736 50.1707 47.024 50.288 47.312C50.4053 47.5947 50.5867 47.8507 50.832 48.08C51.0827 48.3093 51.4027 48.4907 51.792 48.624L51.272 49.456C50.8133 49.3013 50.4347 49.072 50.136 48.768C49.8427 48.464 49.624 48.112 49.48 47.712C49.336 47.312 49.264 46.8907 49.264 46.448L49.264 45.984ZM47.576 45.672L51.56 45.672L51.56 46.52L47.576 46.52L47.576 45.672ZM57.4794 45.512L58.4074 45.512L58.4074 45.864C58.4074 46.1467 58.362 46.4213 58.2714 46.688C58.186 46.9493 58.058 47.1947 57.8874 47.424C57.7167 47.6533 57.5087 47.8587 57.2634 48.04C57.018 48.2213 56.7327 48.376 56.4074 48.504C56.0874 48.6267 55.7354 48.72 55.3514 48.784L54.9354 47.928C55.2767 47.8853 55.5807 47.8133 55.8474 47.712C56.1194 47.6107 56.3567 47.4907 56.5594 47.352C56.7674 47.2133 56.938 47.0613 57.0714 46.896C57.2047 46.7307 57.306 46.56 57.3754 46.384C57.4447 46.208 57.4794 46.0347 57.4794 45.864L57.4794 45.512ZM57.6794 45.512L58.6074 45.512L58.6074 45.864C58.6074 46.0347 58.642 46.208 58.7114 46.384C58.7807 46.56 58.882 46.7307 59.0154 46.896C59.1487 47.0613 59.3167 47.2133 59.5194 47.352C59.7274 47.4907 59.9647 47.6107 60.2314 47.712C60.5034 47.8133 60.81 47.8853 61.1514 47.928L60.7354 48.784C60.346 48.72 59.9914 48.6267 59.6714 48.504C59.3514 48.376 59.0687 48.2213 58.8234 48.04C58.578 47.8533 58.37 47.6453 58.1994 47.416C58.0287 47.1867 57.898 46.9413 57.8074 46.68C57.722 46.4187 57.6794 46.1467 57.6794 45.864L57.6794 45.512ZM57.4794 49.992L58.5434 49.992L58.5434 52.712L57.4794 52.712L57.4794 49.992ZM54.6874 49.32L61.3914 49.32L61.3914 50.184L54.6874 50.184L54.6874 49.32Z" fill="black"/>
<path d="M134.784 11.144H136.74V12.464H134.784V11.144ZM133.584 6.932H135.192V18.044H133.584V6.932ZM126.828 8H128.412V14.912H126.828V8ZM126.828 14.012H127.776C128.568 14.012 129.392 13.98 130.248 13.916C131.104 13.852 131.98 13.732 132.876 13.556L133.044 14.852C132.116 15.044 131.212 15.176 130.332 15.248C129.452 15.312 128.6 15.344 127.776 15.344H126.828V14.012ZM138.287 7.232H139.799V8.168H140.747V7.232H142.247V11.54H138.287V7.232ZM139.799 9.368V10.256H140.747V9.368H139.799ZM142.859 7.232H144.359V8.168H145.295V7.232H146.795V11.54H142.859V7.232ZM144.359 9.368V10.256H145.295V9.368H144.359ZM137.519 12.26H147.575V13.52H137.519V12.26ZM138.695 14.288H146.375V17.948H138.695V14.288ZM144.803 15.548H140.255V16.688H144.803V15.548ZM154.287 17.12C153.151 17.12 152.271 16.752 151.647 16.016C151.031 15.272 150.723 14.224 150.723 12.872C150.723 11.92 150.871 11.1 151.167 10.412C151.471 9.716 151.899 9.18 152.451 8.804C153.003 8.428 153.651 8.24 154.395 8.24C155.235 8.24 155.919 8.464 156.447 8.912C156.983 9.352 157.311 9.964 157.431 10.748H155.595C155.555 10.396 155.423 10.128 155.199 9.944C154.983 9.752 154.711 9.656 154.383 9.656C153.799 9.656 153.363 9.908 153.075 10.412C152.787 10.916 152.643 11.696 152.643 12.752V13.532L152.271 13.424C152.359 13.04 152.515 12.708 152.739 12.428C152.963 12.148 153.243 11.932 153.579 11.78C153.923 11.628 154.307 11.552 154.731 11.552C155.291 11.552 155.783 11.668 156.207 11.9C156.631 12.124 156.959 12.444 157.191 12.86C157.431 13.268 157.551 13.748 157.551 14.3C157.551 14.868 157.415 15.364 157.143 15.788C156.879 16.212 156.503 16.54 156.015 16.772C155.527 17.004 154.951 17.12 154.287 17.12ZM154.155 15.704C154.563 15.704 154.903 15.588 155.175 15.356C155.455 15.116 155.595 14.768 155.595 14.312C155.595 13.856 155.451 13.516 155.163 13.292C154.883 13.06 154.539 12.944 154.131 12.944C153.715 12.944 153.363 13.06 153.075 13.292C152.787 13.516 152.643 13.848 152.643 14.288C152.643 14.584 152.711 14.84 152.847 15.056C152.991 15.264 153.175 15.424 153.399 15.536C153.631 15.648 153.883 15.704 154.155 15.704ZM166.324 6.944H167.836V18.056H166.324V6.944ZM164.908 11.132H166.756V12.416H164.908V11.132ZM161.596 8.312H163.132C163.132 9.096 163.064 9.84 162.928 10.544C162.8 11.248 162.584 11.916 162.28 12.548C161.976 13.172 161.564 13.756 161.044 14.3C160.532 14.836 159.888 15.332 159.112 15.788L158.188 14.672C159.028 14.176 159.696 13.632 160.192 13.04C160.696 12.44 161.056 11.78 161.272 11.06C161.488 10.332 161.596 9.524 161.596 8.636V8.312ZM158.74 8.312H162.064V9.584H158.74V8.312ZM163.852 7.232H165.352V17.576H163.852V7.232Z" fill="#E44646"/>
<path d="M130.596 44.18H131.988V44.516C131.988 44.9 131.924 45.272 131.796 45.632C131.676 45.992 131.492 46.328 131.244 46.64C130.996 46.944 130.692 47.22 130.332 47.468C129.98 47.708 129.572 47.912 129.108 48.08C128.644 48.248 128.128 48.368 127.56 48.44L126.972 47.204C127.468 47.14 127.908 47.044 128.292 46.916C128.684 46.78 129.024 46.624 129.312 46.448C129.6 46.264 129.84 46.068 130.032 45.86C130.224 45.652 130.364 45.432 130.452 45.2C130.548 44.968 130.596 44.74 130.596 44.516V44.18ZM131.064 44.18H132.444V44.516C132.444 44.74 132.488 44.968 132.576 45.2C132.672 45.432 132.816 45.652 133.008 45.86C133.2 46.068 133.44 46.264 133.728 46.448C134.024 46.624 134.364 46.78 134.748 46.916C135.132 47.044 135.572 47.14 136.068 47.204L135.48 48.44C134.912 48.368 134.396 48.248 133.932 48.08C133.468 47.912 133.056 47.708 132.696 47.468C132.344 47.22 132.044 46.944 131.796 46.64C131.556 46.328 131.372 45.992 131.244 45.632C131.124 45.272 131.064 44.9 131.064 44.516V44.18ZM130.68 50H132.276V54.068H130.68V50ZM126.492 49.076H136.548V50.36H126.492V49.076ZM127.38 43.52H135.624V44.78H127.38V43.52ZM141.107 43.688C141.683 43.688 142.203 43.804 142.667 44.036C143.131 44.268 143.495 44.592 143.759 45.008C144.023 45.416 144.155 45.888 144.155 46.424C144.155 46.952 144.023 47.424 143.759 47.84C143.495 48.256 143.131 48.58 142.667 48.812C142.203 49.044 141.683 49.16 141.107 49.16C140.523 49.16 139.999 49.044 139.535 48.812C139.071 48.58 138.703 48.256 138.431 47.84C138.167 47.424 138.035 46.952 138.035 46.424C138.035 45.888 138.167 45.416 138.431 45.008C138.703 44.592 139.071 44.268 139.535 44.036C139.999 43.804 140.523 43.688 141.107 43.688ZM141.107 45.056C140.819 45.056 140.559 45.112 140.327 45.224C140.103 45.328 139.923 45.484 139.787 45.692C139.659 45.892 139.595 46.136 139.595 46.424C139.595 46.712 139.659 46.96 139.787 47.168C139.923 47.376 140.103 47.536 140.327 47.648C140.559 47.752 140.819 47.804 141.107 47.804C141.387 47.804 141.639 47.752 141.863 47.648C142.087 47.536 142.263 47.376 142.391 47.168C142.527 46.96 142.595 46.712 142.595 46.424C142.595 46.136 142.527 45.892 142.391 45.692C142.263 45.484 142.087 45.328 141.863 45.224C141.639 45.112 141.387 45.056 141.107 45.056ZM145.199 42.932H146.795V54.08H145.199V42.932ZM137.759 51.836L137.579 50.54C138.227 50.54 138.943 50.536 139.727 50.528C140.519 50.512 141.331 50.48 142.163 50.432C143.003 50.376 143.815 50.292 144.599 50.18L144.707 51.332C143.907 51.492 143.095 51.608 142.271 51.68C141.447 51.744 140.651 51.788 139.883 51.812C139.115 51.828 138.407 51.836 137.759 51.836ZM154.011 53.12C153.355 53.12 152.779 53.012 152.283 52.796C151.787 52.58 151.399 52.28 151.119 51.896C150.839 51.512 150.699 51.064 150.699 50.552C150.699 50.12 150.791 49.736 150.975 49.4C151.167 49.064 151.431 48.8 151.767 48.608C152.111 48.416 152.507 48.32 152.955 48.32L153.147 48.572C152.675 48.572 152.275 48.496 151.947 48.344C151.619 48.184 151.367 47.956 151.191 47.66C151.023 47.364 150.939 47.016 150.939 46.616C150.939 46.136 151.063 45.72 151.311 45.368C151.567 45.008 151.923 44.732 152.379 44.54C152.835 44.34 153.375 44.24 153.999 44.24C154.623 44.24 155.163 44.34 155.619 44.54C156.075 44.732 156.427 45.008 156.675 45.368C156.931 45.72 157.059 46.136 157.059 46.616C157.059 47.016 156.971 47.364 156.795 47.66C156.627 47.956 156.379 48.184 156.051 48.344C155.723 48.496 155.319 48.572 154.839 48.572L155.043 48.32C155.491 48.32 155.883 48.416 156.219 48.608C156.563 48.8 156.827 49.064 157.011 49.4C157.203 49.736 157.299 50.124 157.299 50.564C157.299 51.076 157.159 51.524 156.879 51.908C156.607 52.292 156.223 52.592 155.727 52.808C155.239 53.016 154.667 53.12 154.011 53.12ZM153.999 51.704C154.423 51.704 154.751 51.592 154.983 51.368C155.223 51.144 155.343 50.828 155.343 50.42C155.343 50.02 155.219 49.708 154.971 49.484C154.723 49.26 154.399 49.148 153.999 49.148C153.591 49.148 153.263 49.26 153.015 49.484C152.775 49.708 152.655 50.02 152.655 50.42C152.655 50.836 152.775 51.156 153.015 51.38C153.255 51.596 153.583 51.704 153.999 51.704ZM153.999 47.852C154.327 47.852 154.595 47.756 154.803 47.564C155.011 47.364 155.115 47.092 155.115 46.748C155.115 46.404 155.011 46.136 154.803 45.944C154.595 45.752 154.323 45.656 153.987 45.656C153.659 45.656 153.391 45.756 153.183 45.956C152.983 46.148 152.883 46.412 152.883 46.748C152.883 47.092 152.987 47.364 153.195 47.564C153.411 47.756 153.679 47.852 153.999 47.852ZM166.125 42.944H167.637V54.056H166.125V42.944ZM164.709 47.132H166.557V48.416H164.709V47.132ZM161.397 44.312H162.933C162.933 45.096 162.865 45.84 162.729 46.544C162.601 47.248 162.385 47.916 162.081 48.548C161.777 49.172 161.365 49.756 160.845 50.3C160.333 50.836 159.689 51.332 158.913 51.788L157.989 50.672C158.829 50.176 159.497 49.632 159.993 49.04C160.497 48.44 160.857 47.78 161.073 47.06C161.289 46.332 161.397 45.524 161.397 44.636V44.312ZM158.541 44.312H161.865V45.584H158.541V44.312ZM163.653 43.232H165.153V53.576H163.653V43.232Z" fill="#FED43D"/>
<path d="M130.692 92.268H132.288V93.804H130.692V92.268ZM130.416 89.736H131.796V90.024C131.796 90.32 131.736 90.604 131.616 90.876C131.496 91.148 131.316 91.4 131.076 91.632C130.844 91.856 130.548 92.056 130.188 92.232C129.836 92.408 129.424 92.552 128.952 92.664C128.488 92.776 127.972 92.852 127.404 92.892L126.912 91.692C127.4 91.668 127.832 91.62 128.208 91.548C128.592 91.468 128.92 91.372 129.192 91.26C129.472 91.148 129.7 91.028 129.876 90.9C130.06 90.764 130.196 90.62 130.284 90.468C130.372 90.316 130.416 90.168 130.416 90.024V89.736ZM131.22 89.736H132.6V90.024C132.6 90.168 132.644 90.316 132.732 90.468C132.82 90.62 132.952 90.764 133.128 90.9C133.312 91.028 133.54 91.148 133.812 91.26C134.092 91.372 134.42 91.468 134.796 91.548C135.18 91.62 135.62 91.668 136.116 91.692L135.624 92.892C135.048 92.852 134.524 92.776 134.052 92.664C133.588 92.552 133.18 92.412 132.828 92.244C132.476 92.068 132.18 91.868 131.94 91.644C131.7 91.412 131.52 91.16 131.4 90.888C131.28 90.616 131.22 90.328 131.22 90.024V89.736ZM127.404 89.22H135.636V90.432H127.404V89.22ZM127.392 95.652H135.612V96.852H127.392V95.652ZM126.492 93.276H136.548V94.524H126.492V93.276ZM131.484 97.164C132.564 97.164 133.4 97.292 133.992 97.548C134.584 97.796 134.88 98.156 134.88 98.628C134.88 99.108 134.584 99.472 133.992 99.72C133.4 99.968 132.564 100.092 131.484 100.092C130.412 100.092 129.58 99.968 128.988 99.72C128.396 99.472 128.1 99.108 128.1 98.628C128.1 98.156 128.396 97.796 128.988 97.548C129.58 97.292 130.412 97.164 131.484 97.164ZM131.484 98.22C130.908 98.22 130.476 98.252 130.188 98.316C129.9 98.372 129.756 98.476 129.756 98.628C129.756 98.78 129.9 98.888 130.188 98.952C130.476 99.016 130.908 99.048 131.484 99.048C132.068 99.048 132.504 99.016 132.792 98.952C133.088 98.888 133.236 98.78 133.236 98.628C133.236 98.476 133.088 98.372 132.792 98.316C132.504 98.252 132.068 98.22 131.484 98.22ZM130.704 94.872H132.288V96.36H130.704V94.872ZM142.547 89.16C143.371 89.16 144.083 89.248 144.683 89.424C145.283 89.592 145.747 89.84 146.075 90.168C146.411 90.488 146.579 90.872 146.579 91.32C146.579 91.768 146.411 92.156 146.075 92.484C145.747 92.804 145.283 93.052 144.683 93.228C144.083 93.404 143.371 93.492 142.547 93.492C141.739 93.492 141.031 93.404 140.423 93.228C139.815 93.052 139.347 92.804 139.019 92.484C138.691 92.156 138.527 91.768 138.527 91.32C138.527 90.872 138.691 90.488 139.019 90.168C139.347 89.84 139.815 89.592 140.423 89.424C141.031 89.248 141.739 89.16 142.547 89.16ZM142.547 90.384C142.051 90.384 141.623 90.42 141.263 90.492C140.903 90.556 140.631 90.656 140.447 90.792C140.271 90.928 140.183 91.104 140.183 91.32C140.183 91.528 140.271 91.704 140.447 91.848C140.631 91.984 140.903 92.088 141.263 92.16C141.623 92.224 142.051 92.256 142.547 92.256C143.059 92.256 143.491 92.224 143.843 92.16C144.195 92.088 144.463 91.984 144.647 91.848C144.831 91.704 144.923 91.528 144.923 91.32C144.923 91.104 144.831 90.928 144.647 90.792C144.463 90.656 144.195 90.556 143.843 90.492C143.491 90.42 143.059 90.384 142.547 90.384ZM138.695 96.156H146.375V99.948H138.695V96.156ZM144.815 97.416H140.255V98.688H144.815V97.416ZM137.519 94.128H147.575V95.376H137.519V94.128ZM153.939 99.12C153.331 99.12 152.783 99.012 152.295 98.796C151.815 98.572 151.423 98.248 151.119 97.824C150.823 97.392 150.651 96.868 150.603 96.252H152.439C152.503 96.748 152.655 97.116 152.895 97.356C153.135 97.588 153.459 97.704 153.867 97.704C154.219 97.704 154.511 97.6 154.743 97.392C154.983 97.184 155.103 96.88 155.103 96.48C155.103 96.096 154.987 95.788 154.755 95.556C154.531 95.316 154.147 95.196 153.603 95.196H152.835V93.804H153.567C154.039 93.804 154.379 93.7 154.587 93.492C154.795 93.284 154.899 93.02 154.899 92.7C154.899 92.396 154.819 92.148 154.659 91.956C154.499 91.756 154.227 91.656 153.843 91.656C153.515 91.656 153.231 91.756 152.991 91.956C152.751 92.156 152.603 92.46 152.547 92.868H150.699C150.771 92.324 150.943 91.856 151.215 91.464C151.487 91.072 151.851 90.772 152.307 90.564C152.763 90.348 153.295 90.24 153.903 90.24C154.511 90.24 155.031 90.336 155.463 90.528C155.903 90.712 156.243 90.976 156.483 91.32C156.723 91.664 156.843 92.076 156.843 92.556C156.843 92.956 156.751 93.308 156.567 93.612C156.383 93.916 156.151 94.152 155.871 94.32C155.599 94.488 155.323 94.572 155.043 94.572L155.031 94.32C155.455 94.32 155.819 94.424 156.123 94.632C156.427 94.832 156.659 95.104 156.819 95.448C156.979 95.784 157.059 96.16 157.059 96.576C157.059 97.096 156.923 97.548 156.651 97.932C156.379 98.316 156.007 98.612 155.535 98.82C155.063 99.02 154.531 99.12 153.939 99.12ZM165.832 88.944H167.344V100.056H165.832V88.944ZM164.416 93.132H166.264V94.416H164.416V93.132ZM161.104 90.312H162.64C162.64 91.096 162.572 91.84 162.436 92.544C162.308 93.248 162.092 93.916 161.788 94.548C161.484 95.172 161.072 95.756 160.552 96.3C160.04 96.836 159.396 97.332 158.62 97.788L157.696 96.672C158.536 96.176 159.204 95.632 159.7 95.04C160.204 94.44 160.564 93.78 160.78 93.06C160.996 92.332 161.104 91.524 161.104 90.636V90.312ZM158.248 90.312H161.572V91.584H158.248V90.312ZM163.36 89.232H164.86V99.576H163.36V89.232Z" fill="#98CE8C"/>
</svg>
