<svg width="26" height="26" viewBox="0 0 26 26" fill="none" xmlns="http://www.w3.org/2000/svg">
<g clip-path="url(#clip0_507_917)">
<path d="M25.8782 0.524063C25.6953 0.34125 26.6094 0.40625 13 0.670312V0.40625C13 0.298506 12.9572 0.195175 12.881 0.118988C12.8049 0.0428012 12.7015 0 12.5938 0C12.486 0 12.3827 0.0428012 12.3065 0.118988C12.2303 0.195175 12.1875 0.298506 12.1875 0.40625V0.686563H11.375V0.40625C11.375 0.298506 11.3322 0.195175 11.256 0.118988C11.1799 0.0428012 11.0765 0 10.9688 0C10.861 0 10.7577 0.0428012 10.6815 0.118988C10.6053 0.195175 10.5625 0.298506 10.5625 0.40625V0.719063H9.75003V0.40625C9.75003 0.298506 9.70723 0.195175 9.63104 0.118988C9.55485 0.0428012 9.45152 0 9.34378 0C9.23603 0 9.1327 0.0428012 9.05652 0.118988C8.98033 0.195175 8.93753 0.298506 8.93753 0.40625V0.751563H8.12503V0.40625C8.12503 0.298506 8.08223 0.195175 8.00604 0.118988C7.92985 0.0428012 7.82652 0 7.71878 0C7.61103 0 7.5077 0.0428012 7.43152 0.118988C7.35533 0.195175 7.31253 0.298506 7.31253 0.40625V0.788125L6.09378 0.8125C5.98603 0.8125 5.8827 0.855301 5.80652 0.931488C5.73033 1.00767 5.68753 1.11101 5.68753 1.21875V3.65625C5.68753 3.76399 5.73033 3.86733 5.80652 3.94351C5.8827 4.0197 5.98603 4.0625 6.09378 4.0625L7.31253 4.08687V5.6875C7.31253 6.11848 7.14132 6.5318 6.83658 6.83655C6.53183 7.14129 6.11851 7.3125 5.68753 7.3125C5.57978 7.3125 5.47645 7.3553 5.40027 7.43149C5.32408 7.50767 5.28128 7.61101 5.28128 7.71875C5.28128 8.70187 8.12503 7.92188 8.12503 5.6875V4.10313L8.93753 4.12344V10.4163C8.78315 10.465 8.63284 10.5219 8.48659 10.5828C6.98347 8.95781 4.7369 7.98281 3.14847 8.85625C1.72253 9.64437 1.34472 11.6269 1.5844 13.4062H0.406279C0.298535 13.4062 0.195203 13.4491 0.119017 13.5252C0.04283 13.6014 2.87807e-05 13.7048 2.87797e-05 13.8125C-0.0316221 14.5926 0.026996 15.3737 0.174716 16.1403C0.528245 17.7737 1.29566 19.2887 2.40332 20.5401C3.51097 21.7914 4.92168 22.7371 6.50003 23.2862V25.5938C6.50003 25.7015 6.54283 25.8048 6.61902 25.881C6.6952 25.9572 6.79853 26 6.90628 26H15.8438C15.9515 26 16.0549 25.9572 16.131 25.881C16.2072 25.8048 16.25 25.7015 16.25 25.5938V23.2862C17.4931 22.8412 18.6357 22.1543 19.6119 21.2653C20.5881 20.3763 21.3785 19.3027 21.9375 18.1066C22.544 16.7596 22.8224 15.288 22.75 13.8125C22.75 13.7048 22.7072 13.6014 22.631 13.5252C22.5549 13.4491 22.4515 13.4062 22.3438 13.4062H21.5069C21.1616 10.0994 16.8391 8.00719 13 9.34375V4.20469L25.5938 4.46875C25.7015 4.46875 25.8049 4.42595 25.881 4.34976C25.9572 4.27358 26 4.17024 26 4.0625C26 0.544375 26.0447 0.6825 25.8782 0.524063ZM25.1875 1.21875V2.03125H13V1.48281L25.1875 1.21875ZM12.1875 1.49906V2.03125H11.375V1.51531L12.1875 1.49906ZM11.375 2.84375H12.1875V3.37594H11.375V2.84375ZM10.5625 3.34344H9.75003V2.84375H10.5625V3.34344ZM10.5625 1.53156V2.03125H9.75003V1.54781L10.5625 1.53156ZM8.93753 1.56406V2.03125H8.12503V1.58438L8.93753 1.56406ZM6.50003 1.625H7.31253V2.03125H6.50003V1.625ZM6.50003 3.25V2.84375H7.31253V3.27438L6.50003 3.25ZM8.12503 3.2825V2.84375H8.93753V3.31094L8.12503 3.2825ZM9.75003 4.13156H10.5625V10.1562C10.2903 10.1587 10.0187 10.1818 9.75003 10.2253V4.13156ZM14.1782 13.4062H13.3169C12.9716 12.5938 11.6025 11.7812 9.75003 11.7812C9.24222 11.7812 9.53472 11.9194 9.0269 11.2328C11.1394 10.465 13.8125 11.44 14.1782 13.4062ZM14.9907 13.4062C14.9613 13.1942 14.9096 12.9858 14.8363 12.7847C16.2785 12.3784 18.0416 12.6669 18.8297 13.4062H14.9907ZM19.8047 13.4062C19.2928 12.1875 16.7335 11.3059 14.4666 12.0575C14.2934 11.8061 14.0902 11.5769 13.8613 11.375C16.3597 10.3147 19.305 11.5944 19.8413 13.4266L19.8047 13.4062ZM10.0141 13.4062C9.96142 13.1286 9.88252 12.8565 9.77847 12.5938C10.6987 12.5504 11.604 12.8387 12.3297 13.4062H10.0141ZM3.51409 9.57125C5.33409 8.56781 8.64503 11.0662 9.17315 13.4062H8.08847C7.64972 10.6356 3.6969 10.7291 3.28253 13.4062H2.40503C2.12878 11.6512 2.57972 10.0994 3.53847 9.57125H3.51409ZM7.26784 13.4062H4.10722C4.19226 13.0511 4.39444 12.735 4.68115 12.5089C4.96785 12.2827 5.32237 12.1597 5.68753 12.1597C6.05269 12.1597 6.40721 12.2827 6.69391 12.5089C6.98062 12.735 7.18279 13.0511 7.26784 13.4062ZM21.3282 17.4688H1.4219C1.31207 17.2034 1.21713 16.9322 1.13753 16.6562H21.6125C21.5329 16.9322 21.438 17.2034 21.3282 17.4688ZM15.4375 25.1875H7.31253V23.5625C9.09597 24.0662 10.3228 23.9688 12.411 23.9688C13.4337 23.973 14.4521 23.8363 15.4375 23.5625V25.1875ZM12.411 23.1562C9.51034 23.1562 9.25847 23.2375 7.01597 22.6038C4.7951 21.8727 2.93306 20.3285 1.80378 18.2812H20.9463C19.2807 21.3809 15.8966 23.1562 12.411 23.1562ZM21.9375 14.3934C21.9365 14.8801 21.8902 15.3656 21.7994 15.8438H0.950654C0.849734 15.3082 0.803455 14.7637 0.812529 14.2188C24.1597 14.2188 21.9375 14.1334 21.9375 14.3934ZM20.6903 13.4062C20.1703 10.7656 16.1566 9.18937 13.13 10.8144C12.9057 10.6858 12.6705 10.577 12.4272 10.4894C15.6853 8.71 20.3125 10.3228 20.6903 13.4062ZM12.1875 9.68094C11.9039 9.82732 11.6323 9.99575 11.375 10.1847V4.17219H12.1875C12.1875 10.0994 12.1875 9.56719 12.1875 9.68094ZM25.1875 3.65625L13 3.39219V2.84375H25.1875V3.65625Z" fill="#231F20"/>
</g>
<defs>
<clipPath id="clip0_507_917">
<rect width="26" height="26" fill="white"/>
</clipPath>
</defs>
</svg>
