<svg width="31" height="31" viewBox="0 0 31 31" fill="none" xmlns="http://www.w3.org/2000/svg">
<path d="M31 12.5938C31 12.4653 30.949 12.3421 30.8581 12.2512C30.7673 12.1604 30.6441 12.1094 30.5156 12.1094H29.5081C30.937 9.75531 31.0387 6.29688 29.0625 6.29688C28.0502 6.29688 27.9291 6.70375 27.6094 6.78125C27.3042 6.25328 27.2025 4.35938 25.6719 4.35938C25.4482 4.35698 25.2289 4.42107 25.0418 4.54353C24.8547 4.666 24.7081 4.8413 24.6208 5.04719C23.8167 6.48094 23.87 2.42188 21.7969 2.42188C21.1672 2.42188 20.8717 3.07578 20.5569 3.76844C20.4019 4.11719 20.0725 4.84375 19.8594 4.84375C19.2103 4.84375 19.0166 3.83625 17.9219 3.875C17.142 3.90406 16.7448 4.35938 16.057 5.32812C13.9113 2.67859 11.2762 2.90625 9.20312 2.90625C9.07466 2.90625 8.95146 2.95728 8.86062 3.04812C8.76978 3.13896 8.71875 3.26216 8.71875 3.39062V4.93578C8.04062 4.80984 7.89047 4.84375 4.84375 4.84375C4.71529 4.84375 4.59208 4.89478 4.50125 4.98562C4.41041 5.07646 4.35938 5.19966 4.35938 5.32812C4.3579 6.60931 4.82277 7.84724 5.66719 8.81078C5.29235 8.91371 4.94744 9.10448 4.66104 9.3673C4.37464 9.63011 4.155 9.9574 4.02031 10.322C3.63248 10.4639 3.28737 10.7026 3.01778 11.0154C2.74818 11.3283 2.56306 11.7048 2.48 12.1094H0.484375C0.355911 12.1094 0.232708 12.1604 0.14187 12.2512C0.0510322 12.3421 0 12.4653 0 12.5938C0.000827208 15.5561 0.938195 18.4424 2.6781 20.84C4.41801 23.2376 6.87138 25.0238 9.6875 25.9431V28.0938C9.6875 28.2222 9.73853 28.3454 9.82937 28.4363C9.92021 28.5271 10.0434 28.5781 10.1719 28.5781H20.8281C20.9566 28.5781 21.0798 28.5271 21.1706 28.4363C21.2615 28.3454 21.3125 28.2222 21.3125 28.0938V25.9431C24.1286 25.0238 26.582 23.2376 28.3219 20.84C30.0618 18.4424 30.9992 15.5561 31 12.5938ZM26.5341 12.1094C26.3756 11.8198 26.1515 11.5713 25.8799 11.3838C25.6082 11.1962 25.2965 11.0748 24.9695 11.0292C24.7639 10.7349 24.4805 10.5034 24.1509 10.3608C24.0408 9.66747 23.7814 9.00638 23.3905 8.42328C23.9237 8.22802 24.5 8.18133 25.0578 8.2882C25.6155 8.39507 26.1337 8.65148 26.557 9.03003C26.9804 9.40857 27.2929 9.89503 27.4611 10.4374C27.6294 10.9798 27.6472 11.5577 27.5125 12.1094H26.5341ZM6.84906 12.1094C6.92561 11.8184 7.06887 11.5493 7.26748 11.3233C7.46609 11.0973 7.7146 10.9207 7.99332 10.8074C8.27204 10.6942 8.57331 10.6473 8.87326 10.6707C9.1732 10.6941 9.46359 10.787 9.72141 10.942C9.47627 11.2909 9.3109 11.6894 9.23703 12.1094H6.84906ZM13.9791 12.1094H10.2397C10.3512 11.6989 10.5947 11.3366 10.9326 11.0783C11.2705 10.8199 11.684 10.68 12.1094 10.68C12.5347 10.68 12.9482 10.8199 13.2861 11.0783C13.624 11.3366 13.8675 11.6989 13.9791 12.1094ZM14.972 12.1094C14.9034 11.7116 14.7533 11.3323 14.5312 10.9953C14.5796 10.9721 14.6238 10.941 14.662 10.9033C14.9564 10.6795 15.3021 10.533 15.6676 10.4771C16.0331 10.4213 16.4068 10.4579 16.7545 10.5836C16.8291 10.6086 16.9087 10.615 16.9863 10.6024C17.064 10.5897 17.1374 10.5583 17.2002 10.5109C17.5693 10.3012 17.9865 10.1909 18.4111 10.1909C18.8356 10.1909 19.2529 10.3012 19.622 10.5109C19.9466 10.758 20.1064 10.4625 20.833 10.4625C22.1408 10.4625 22.0439 11.0777 22.538 11.0583H22.7705C23.5164 11.0583 24.0928 11.3634 24.2236 11.6492C24.3737 12.0464 24.6741 11.8866 25.1923 12.1336L14.972 12.1094ZM23.1047 10.0895C22.9643 10.0823 22.8237 10.0823 22.6833 10.0895C22.2964 9.81625 21.8543 9.63122 21.3881 9.54753C20.9219 9.46383 20.4431 9.4835 19.9853 9.60516C19.5 9.36369 18.9653 9.23802 18.4232 9.23802C17.8811 9.23802 17.3464 9.36369 16.8611 9.60516C16.6601 9.36875 16.4171 9.17166 16.1442 9.02391C16.5522 8.40506 17.129 7.9162 17.8064 7.6153C18.4838 7.3144 19.2333 7.21409 19.9659 7.32626C20.6986 7.43843 21.3837 7.75837 21.9401 8.24815C22.4964 8.73793 22.9006 9.37698 23.1047 10.0895ZM17.9219 4.84375C18.5177 4.84375 18.6727 5.8125 19.8594 5.8125C21.0461 5.8125 21.4336 3.83141 21.8502 3.39062C22.848 3.50203 22.8189 6.29688 24.2188 6.29688C25.3958 6.29688 25.3958 5.32812 25.6719 5.32812C26.6406 5.32812 26.2967 7.91953 27.6723 7.75C28.4764 7.64828 28.2875 7.26562 29.0625 7.26562C29.8375 7.26562 29.8762 9.78922 28.5781 11.7945C28.6512 11.0734 28.5321 10.3457 28.233 9.68543C27.9339 9.02516 27.4654 8.45581 26.875 8.03519C26.2847 7.61457 25.5935 7.35766 24.8718 7.29056C24.15 7.22345 23.4234 7.34855 22.7656 7.65313C22.0091 6.91278 21.0294 6.44268 19.9785 6.31569C18.9277 6.18871 17.8642 6.41194 16.9531 6.95078C16.8526 6.69822 16.7361 6.4523 16.6044 6.21453C17.3842 5.08109 17.578 4.84375 17.9219 4.84375ZM9.6875 3.875H11.005C12.136 3.87978 13.238 4.23361 14.1605 4.88814C15.0829 5.54268 15.7807 6.46601 16.1588 7.53203C15.7752 7.87766 15.4483 8.28138 15.19 8.72844L15.0156 8.71875C14.7061 8.30997 14.2748 8.01 13.7838 7.86202C13.2929 7.71404 12.7676 7.7257 12.2838 7.89531C12.001 7.6336 11.6585 7.44512 11.2862 7.34632C10.9138 7.24753 10.5229 7.24145 10.1477 7.32859C9.60516 6.08859 9.6875 5.25547 9.6875 3.875ZM8.76234 5.94328C8.83748 6.55916 9.0006 7.16108 9.24672 7.73063C9.17092 7.78123 9.09814 7.83622 9.02875 7.89531C8.61874 7.75135 8.17754 7.72035 7.75143 7.80557C7.32531 7.8908 6.92998 8.0891 6.60687 8.37969C5.91016 7.69121 5.46929 6.78556 5.35719 5.8125C7.87594 5.8125 8.04062 5.76891 8.76234 5.94328ZM4.51922 11.1842C4.60926 11.1643 4.69173 11.119 4.75694 11.0538C4.82215 10.9886 4.86739 10.9061 4.88734 10.8161C4.96055 10.4966 5.13965 10.2112 5.39553 10.0063C5.65142 9.8014 5.96907 9.68906 6.29688 9.6875C6.40344 9.6875 6.78125 9.81344 6.975 9.46469C7.16238 9.13842 7.46901 8.89755 7.83036 8.79276C8.19172 8.68797 8.57964 8.72742 8.9125 8.90281C9.55672 9.24672 9.56156 8.23438 10.6562 8.23438C11.7509 8.23438 11.78 9.23219 12.3903 8.90281C12.7232 8.72742 13.1111 8.68797 13.4724 8.79276C13.8338 8.89755 14.1404 9.13842 14.3278 9.46469C14.3752 9.54871 14.4467 9.61665 14.533 9.6598C14.6193 9.70295 14.7165 9.71934 14.8122 9.70688C14.5696 9.79302 14.3423 9.91729 14.1389 10.075C13.9657 10.072 13.7924 10.0818 13.6206 10.1041C13.1334 9.81067 12.5708 9.66667 12.0026 9.68992C11.4343 9.71317 10.8854 9.90263 10.4237 10.2348C10.0231 9.94546 9.5552 9.76305 9.06439 9.70485C8.57357 9.64666 8.07603 9.71459 7.61878 9.90224C7.16153 10.0899 6.7597 10.3911 6.45126 10.7773C6.14283 11.1635 5.93798 11.622 5.85609 12.1094H3.47781C3.56003 11.8803 3.69847 11.6755 3.88043 11.5139C4.06239 11.3522 4.28204 11.2389 4.51922 11.1842ZM20.3438 27.6094H10.6562V26.2241C12.71 26.7375 14.013 26.6406 16.9531 26.6406C18.0961 26.6409 19.2348 26.501 20.3438 26.2241V27.6094ZM16.9531 25.6719H14.0469C10.6607 25.6742 7.40553 24.363 4.96637 22.0142C2.52721 19.6654 1.09416 16.462 0.96875 13.0781H30.0312C29.9058 16.462 28.4728 19.6654 26.0336 22.0142C23.5945 24.363 20.3393 25.6742 16.9531 25.6719Z" fill="#231F20"/>
</svg>
