<svg width="26" height="26" viewBox="0 0 26 26" fill="none" xmlns="http://www.w3.org/2000/svg">
<g clip-path="url(#clip0_507_912)">
<path d="M16.1647 7.42628L15.8438 7.26378V5.68753C15.8438 5.57979 15.8009 5.47646 15.7248 5.40027C15.6486 5.32409 15.5452 5.28128 15.4375 5.28128H14.5641L13.8125 0.747534C13.7969 0.651405 13.7473 0.564068 13.6728 0.501432C13.5982 0.438797 13.5036 0.40503 13.4062 0.406284H12.5938C12.4964 0.40503 12.4018 0.438797 12.3272 0.501432C12.2527 0.564068 12.2031 0.651405 12.1875 0.747534L11.4359 5.28128H10.5625C10.4548 5.28128 10.3514 5.32409 10.2752 5.40027C10.1991 5.47646 10.1562 5.57979 10.1562 5.68753V7.26378L9.83531 7.42628C9.56595 7.56107 9.33935 7.76807 9.18082 8.02417C9.02228 8.28027 8.93804 8.5754 8.9375 8.8766V24.375C8.9375 24.6983 9.0659 25.0083 9.29446 25.2368C9.52302 25.4654 9.83302 25.5938 10.1562 25.5938H15.8438C16.167 25.5938 16.477 25.4654 16.7055 25.2368C16.9341 25.0083 17.0625 24.6983 17.0625 24.375V8.8766C17.062 8.5754 16.9777 8.28027 16.8192 8.02417C16.6606 7.76807 16.434 7.56107 16.1647 7.42628ZM12.9391 1.21878C13.1178 1.21878 12.9878 0.763784 13.7516 5.28128H12.2606L12.9391 1.21878ZM10.9688 6.09378H15.0312V6.90628H10.9688V6.09378ZM16.25 24.375C16.25 24.4828 16.2072 24.5861 16.131 24.6623C16.0548 24.7385 15.9515 24.7813 15.8438 24.7813H10.1562C10.0485 24.7813 9.94517 24.7385 9.86899 24.6623C9.7928 24.5861 9.75 24.4828 9.75 24.375V8.8766C9.75 8.24691 10.27 8.12503 11.0662 7.71878H14.9337C15.6812 8.09253 16.25 8.24285 16.25 8.8766V24.375Z" fill="#231F20"/>
<path d="M25.1022 7.42628L24.7812 7.26378V5.68753C24.7812 5.57979 24.7384 5.47646 24.6623 5.40027C24.5861 5.32409 24.4827 5.28128 24.375 5.28128H23.5016L22.75 0.747534C22.7344 0.651405 22.6848 0.564068 22.6103 0.501432C22.5357 0.438797 22.4411 0.40503 22.3438 0.406284H21.5312C21.4339 0.40503 21.3393 0.438797 21.2647 0.501432C21.1902 0.564068 21.1406 0.651405 21.125 0.747534L20.3734 5.28128H19.5C19.3923 5.28128 19.2889 5.32409 19.2127 5.40027C19.1366 5.47646 19.0938 5.57979 19.0938 5.68753V7.26378L18.7728 7.42628C18.5035 7.56107 18.2769 7.76807 18.1183 8.02417C17.9598 8.28027 17.8755 8.5754 17.875 8.8766V24.375C17.875 24.6983 18.0034 25.0083 18.232 25.2368C18.4605 25.4654 18.7705 25.5938 19.0938 25.5938H24.7812C25.1045 25.5938 25.4145 25.4654 25.643 25.2368C25.8716 25.0083 26 24.6983 26 24.375V8.8766C25.9995 8.5754 25.9152 8.28027 25.7567 8.02417C25.5981 7.76807 25.3715 7.56107 25.1022 7.42628ZM21.8766 1.21878C22.0553 1.21878 21.9253 0.763784 22.6891 5.28128H21.1981L21.8766 1.21878ZM19.9062 6.09378H23.9688V6.90628H19.9062V6.09378ZM25.1875 24.375C25.1875 24.4828 25.1447 24.5861 25.0685 24.6623C24.9923 24.7385 24.889 24.7813 24.7812 24.7813H19.0938C18.986 24.7813 18.8827 24.7385 18.8065 24.6623C18.7303 24.5861 18.6875 24.4828 18.6875 24.375V8.8766C18.6875 8.24691 19.2075 8.12503 20.0038 7.71878H23.8712C24.6187 8.09253 25.1875 8.24285 25.1875 8.8766V24.375Z" fill="#231F20"/>
<path d="M7.22719 7.42628L6.90625 7.26378V5.68753C6.90625 5.57979 6.86345 5.47646 6.78726 5.40027C6.71108 5.32409 6.60774 5.28128 6.5 5.28128H5.62656L4.875 0.747534C4.85943 0.651405 4.80984 0.564068 4.73528 0.501432C4.66071 0.438797 4.56612 0.40503 4.46875 0.406284H3.65625C3.55888 0.40503 3.46429 0.438797 3.38972 0.501432C3.31516 0.564068 3.26557 0.651405 3.25 0.747534L2.49844 5.28128H1.625C1.51726 5.28128 1.41392 5.32409 1.33774 5.40027C1.26155 5.47646 1.21875 5.57979 1.21875 5.68753V7.26378L0.897812 7.42628C0.628453 7.56107 0.401855 7.76807 0.243317 8.02417C0.0847779 8.28027 0.000537562 8.5754 0 8.8766L0 24.375C0 24.6983 0.128404 25.0083 0.356964 25.2368C0.585524 25.4654 0.895517 25.5938 1.21875 25.5938H6.90625C7.22948 25.5938 7.53948 25.4654 7.76804 25.2368C7.9966 25.0083 8.125 24.6983 8.125 24.375V8.8766C8.12446 8.5754 8.04022 8.28027 7.88168 8.02417C7.72315 7.76807 7.49655 7.56107 7.22719 7.42628ZM4.00156 1.21878C4.18031 1.21878 4.05031 0.763784 4.81406 5.28128H3.32313L4.00156 1.21878ZM2.03125 6.09378H6.09375V6.90628H2.03125V6.09378ZM7.3125 24.375C7.3125 24.4828 7.2697 24.5861 7.19351 24.6623C7.11733 24.7385 7.01399 24.7813 6.90625 24.7813H1.21875C1.11101 24.7813 1.00767 24.7385 0.931488 24.6623C0.855301 24.5861 0.8125 24.4828 0.8125 24.375V8.8766C0.8125 8.24691 1.3325 8.12503 2.12875 7.71878H5.99625C6.74375 8.09253 7.3125 8.24285 7.3125 8.8766V24.375Z" fill="#231F20"/>
</g>
<defs>
<clipPath id="clip0_507_912">
<rect width="26" height="26" fill="white"/>
</clipPath>
</defs>
</svg>
