<svg width="87" height="35" viewBox="0 0 87 35" fill="none" xmlns="http://www.w3.org/2000/svg">
<g clip-path="url(#clip0_446_451)">
<path d="M29.1957 14.3921C30.1112 14.3921 30.8985 13.8127 31.2326 12.9888L33.1596 8.28164C29.8425 8.52906 20.3177 3.91691 15.4778 0C10.6259 3.92023 3.4877 6.87881 1.7543 7.84759C0.465804 8.56705 -0.0665286 9.88012 0.0497332 11.121L0.589847 16.899C0.848919 16.1155 1.44579 15.5038 2.24955 15.1267C8.22971 12.3192 10.7541 11.5446 15.4778 8.63353C20.1525 11.546 26.7066 14.3921 29.1957 14.3921Z" fill="#ED1C24"/>
<path d="M30.4251 16.2741L29.7723 23.2284C29.5741 25.2448 28.4573 26.9791 26.8631 27.9754L15.4776 35.0451L4.09405 27.9764C2.49979 26.9801 1.38249 25.2457 1.1843 23.2294L0.877622 19.9654C0.799809 19.1372 1.14036 17.808 2.4705 17.2196L7.6533 14.8955L8.06892 20.9864C8.12934 21.9267 8.63833 22.7416 9.37526 23.2009L15.4785 26.9896L21.5814 23.1999C22.3197 22.7412 22.8278 21.9272 22.8886 20.986L23.3038 14.8945C26.8525 16.2945 28.9979 16.7575 30.426 16.2731L30.4251 16.2741Z" fill="#ED1C24"/>
<path d="M86.3254 27.2465H82.3661C82.7039 26.7906 82.7918 26.159 82.7918 25.4158V20.0187H86.5941V17.7031C86.5941 17.2994 86.2783 16.9727 85.8892 16.9727H83.223V9.2144H86.5941V6.8993C86.5941 6.49564 86.2783 6.16797 85.8892 6.16797H64.8019V8.48307C64.8019 8.88767 65.1177 9.2144 65.5059 9.2144H68.1726V16.9727H64.8019V19.2878C64.8019 19.6915 65.1177 20.0182 65.5059 20.0182H68.6038V25.9686C68.6038 26.6738 68.0531 27.246 67.3725 27.246H64.3652V29.5611C64.3652 29.9648 64.6811 30.2925 65.071 30.2925H87.0313V27.9769C87.0303 27.5732 86.7154 27.2456 86.3254 27.2456V27.2465ZM72.4335 9.21488H78.9607V16.9727H72.4335V9.2144V9.21488ZM72.4404 27.2465C72.7782 26.7906 72.8661 26.159 72.8661 25.4158V20.0187H78.5304V25.9691C78.5304 26.6743 77.9779 27.2465 77.2991 27.2465H72.4404Z" fill="black"/>
<path d="M59.8966 5.53516H56.4385V10.7248H54.1581V6.26554C54.1581 5.86188 53.8432 5.53516 53.4546 5.53516H49.9951V18.5709C49.9951 18.9746 50.311 19.3013 50.7 19.3013H54.1577V13.7707H56.4381V18.5709C56.4381 18.9746 56.7539 19.3013 57.143 19.3013H60.6015V6.26554C60.6015 5.86188 60.2857 5.53516 59.8966 5.53516ZM59.8966 20.8134H41.7557V28.0697C41.7557 30.0301 43.0213 31.0839 44.7693 31.4063C46.5087 31.7269 48.9529 31.9287 51.1774 31.9287C53.4006 31.9287 55.8462 31.7269 57.5847 31.4063C59.3322 31.0834 60.6001 30.0301 60.6001 28.0692V21.5452C60.6001 21.1415 60.2866 20.8134 59.8966 20.8134ZM56.3378 27.2828C56.3378 28.0032 56.0494 28.2754 55.4599 28.4107C54.625 28.6021 53.1713 28.8191 51.1779 28.8191C49.1845 28.8191 47.7299 28.6021 46.8959 28.4107C46.3054 28.2758 46.018 28.0032 46.018 27.2824V23.8593H56.3383V27.2819L56.3378 27.2828ZM46.8428 19.0211L48.8641 16.584C48.9877 16.4344 49.0824 16.2088 49.0824 15.9856C49.0824 15.7078 48.9428 15.4442 48.7634 15.2932L44.708 11.8897C45.4174 10.2228 45.834 8.44672 45.834 6.72286C45.834 6.3192 45.5191 5.99248 45.13 5.99248H41.5071C41.5071 8.47141 41.0549 13.7631 36.2744 17.1505L37.4782 18.8079C37.7194 19.1403 38.1708 19.1911 38.5493 18.9955C40.2795 18.0994 41.9058 16.5522 43.1796 14.6825L46.8428 19.0211Z" fill="black"/>
</g>
<defs>
<clipPath id="clip0_446_451">
<rect width="87" height="35" fill="white"/>
</clipPath>
</defs>
</svg>
