<svg width="124" height="50" viewBox="0 0 124 50" fill="none" xmlns="http://www.w3.org/2000/svg">
<g clip-path="url(#clip0_446_451)">
<path d="M41.6124 20.5601C42.9172 20.5601 44.0393 19.7324 44.5156 18.5554L47.2621 11.8309C42.5343 12.1844 28.9587 5.59558 22.0604 0C15.1451 5.60033 4.97108 9.82687 2.50049 11.2108C0.664017 12.2386 -0.0947101 14.1145 0.0709964 15.8872L0.840814 24.1415C1.21007 23.0221 2.06078 22.1483 3.20637 21.6096C11.7298 17.5988 15.3277 16.4923 22.0604 12.3336C28.7232 16.4943 38.0648 20.5601 41.6124 20.5601Z" fill="#ED1C24"/>
<path d="M43.3648 23.2521L42.4345 33.1868C42.152 36.0673 40.5602 38.5449 38.2879 39.9682L22.0604 50.0678L5.83553 39.9696C3.56326 38.5463 1.97078 36.0687 1.6883 33.1881L1.2512 28.5254C1.14029 27.3422 1.62567 25.4433 3.52151 24.6028L10.9085 21.2826L11.5009 29.984C11.587 31.3272 12.3124 32.4914 13.3628 33.1474L22.0617 38.5599L30.76 33.1461C31.8123 32.4907 32.5365 31.3279 32.6232 29.9833L33.2149 21.2812C38.2729 23.2812 41.3306 23.9427 43.3661 23.2507L43.3648 23.2521Z" fill="#ED1C24"/>
<path d="M123.039 38.9247H117.396C117.877 38.2734 118.002 37.3711 118.002 36.3094V28.5992H123.422V25.2912C123.422 24.7146 122.972 24.2478 122.417 24.2478H118.617V13.1645H123.422V9.85726C123.422 9.28061 122.972 8.8125 122.417 8.8125H92.3616V12.1198C92.3616 12.6978 92.8118 13.1645 93.365 13.1645H97.1658V24.2478H92.3616V27.5551C92.3616 28.1318 92.8118 28.5985 93.365 28.5985H97.7804V37.0991C97.7804 38.1065 96.9955 38.924 96.0254 38.924H91.7393V42.2313C91.7393 42.808 92.1894 43.2761 92.7452 43.2761H124.045V39.9681C124.044 39.3915 123.595 38.9234 123.039 38.9234V38.9247ZM103.239 13.1652H112.542V24.2478H103.239V13.1645V13.1652ZM103.249 38.9247C103.73 38.2734 103.855 37.3711 103.855 36.3094V28.5992H111.929V37.0998C111.929 38.1072 111.141 38.9247 110.174 38.9247H103.249Z" fill="black"/>
<path d="M85.3706 7.90625H80.4418V15.32H77.1916V8.94966C77.1916 8.373 76.7427 7.90625 76.1889 7.90625H71.2581V26.5288C71.2581 27.1054 71.7083 27.5722 72.2628 27.5722H77.1909V19.6714H80.4411V26.5288C80.4411 27.1054 80.8913 27.5722 81.4458 27.5722H86.3753V8.94966C86.3753 8.373 85.9251 7.90625 85.3706 7.90625ZM85.3706 29.7323H59.5145V40.0985C59.5145 42.899 61.3183 44.4044 63.8098 44.865C66.2889 45.323 69.7726 45.6113 72.9432 45.6113C76.1119 45.6113 79.5976 45.323 82.0754 44.865C84.5662 44.4037 86.3733 42.899 86.3733 40.0978V30.7777C86.3733 30.2011 85.9264 29.7323 85.3706 29.7323ZM80.2983 38.9743C80.2983 40.0035 79.8873 40.3922 79.047 40.5856C77.857 40.859 75.785 41.169 72.9439 41.169C70.1027 41.169 68.0295 40.859 66.8408 40.5856C65.9992 40.3929 65.5895 40.0035 65.5895 38.9737V34.0836H80.2989V38.973L80.2983 38.9743ZM66.7651 27.1719L69.6461 23.6903C69.8222 23.4766 69.9573 23.1543 69.9573 22.8355C69.9573 22.4386 69.7583 22.0621 69.5025 21.8464L63.7224 16.9841C64.7336 14.6029 65.3273 12.0656 65.3273 9.60297C65.3273 9.02632 64.8784 8.55956 64.3239 8.55956H59.1602C59.1602 12.1009 58.5157 19.6605 51.7021 24.4996L53.4179 26.8673C53.7617 27.3422 54.405 27.4148 54.9445 27.1353C57.4105 25.8551 59.7285 23.6448 61.5441 20.9739L66.7651 27.1719Z" fill="black"/>
</g>
<defs>
<clipPath id="clip0_446_451">
<rect width="124" height="50" fill="white"/>
</clipPath>
</defs>
</svg>
