<svg width="74" height="48" viewBox="0 0 74 48" fill="none" xmlns="http://www.w3.org/2000/svg">
<g clip-path="url(#clip0_394_332)">
<path d="M15.1277 42.3284C13.4036 41.8875 14.1842 35.8766 14.0077 33.9765C13.8787 32.8526 14.3403 31.1574 13.6547 30.3004C12.9624 29.8658 11.7474 30.1638 10.4916 30.17C8.30598 30.288 6.03887 30.4122 3.95503 30.7662C2.23774 31.207 -0.117613 30.1825 0.00456679 28.4997C0.310015 26.8293 4.70847 28.1519 6.18142 27.947C12.0868 27.9967 18.1278 27.8477 24.0128 27.3447C25.1871 27.2329 26.3953 27.0342 27.5357 26.8417C28.2212 26.7361 28.9679 26.7361 29.4837 27.1646C30.1965 27.6862 30.4137 28.9033 29.8163 29.4497C29.2326 29.99 28.2552 29.99 27.461 29.9527C25.6351 29.8409 23.7888 29.8099 21.7389 29.8099C20.5579 29.8658 18.5351 29.6919 17.7952 30.0645C17.6256 30.1638 17.5169 30.2942 17.4423 30.4681C16.7635 32.9519 18.5555 41.8751 15.2023 42.3222L15.1209 42.3098L15.1277 42.3284ZM6.26287 25.1838C4.84423 25.3266 2.72645 23.2836 4.47769 22.4329C5.62482 21.9672 7.51181 22.7123 8.41458 22.1349C9.04584 21.7561 9.11372 21.0296 9.09336 20.3775C9.16123 19.0363 8.21095 17.6826 8.1838 16.4283C8.45531 14.7641 11.2722 15.8632 11.7474 16.9374C12.8877 18.4774 10.9057 21.9796 13.6547 22.346C15.3856 22.4081 17.6256 22.5695 17.9514 20.4831C18.2025 19.4585 18.2365 18.3594 17.8903 17.3783C17.5509 16.4034 17.2726 15.0373 18.793 14.9814C19.7433 14.969 20.7819 15.4658 21.3452 16.1737C22.2955 17.2293 21.3656 19.1232 21.386 20.5266C21.4131 20.9737 21.5217 21.3711 21.9561 21.5636C22.567 21.8616 23.8092 21.4021 24.5898 21.6505C25.6487 21.8678 26.2256 23.1781 25.5536 23.9667C24.3997 24.9167 22.4516 24.333 20.9855 24.4324C16.1526 24.4013 11.1568 24.6622 6.37147 25.1838H6.25608H6.26287ZM7.17243 15.236C5.87597 15.3478 4.1383 13.9568 4.6949 12.7025C5.0818 12.0691 6.14748 12.0816 6.88055 12.1623C8.91688 12.3548 11.0618 12.2741 13.1864 12.2306C16.1187 12.1685 19.1867 12.0133 22.1258 11.4854C22.9743 11.3302 23.9382 11.2433 24.4812 11.9698C25.35 13.0254 24.9495 14.5654 23.2119 14.4785C17.8971 14.2797 12.5144 14.3915 7.28782 15.2236H7.17243V15.236Z" fill="#4D4C4C"/>
<path fill-rule="evenodd" clip-rule="evenodd" d="M46.7246 2.78627C47.7427 2.48821 48.3536 1.19662 47.5323 0.432843C46.677 -0.337144 45.3399 0.109946 44.3149 0.33349C42.7266 0.699855 40.7106 0.848885 38.7218 0.979286C36.5158 1.07864 34.2758 1.27735 32.1173 1.09106C31.1331 0.997915 30.1149 0.662598 29.1239 0.650178C25.9133 0.886142 28.9678 3.46932 28.8456 5.04656C29.0628 7.3441 28.513 10.8587 29.314 12.9451C29.8774 14.5534 31.8458 14.6341 33.4274 14.5224C37.7987 14.2616 42.0274 14.4354 46.3309 14.2057C48.279 13.9325 48.469 11.5542 46.4463 11.2872C44.6543 11.2002 43.0999 11.8336 41.2061 11.9019C39.2445 12.0696 37.5272 12.1441 35.6741 12.1814C34.7102 12.1876 33.6785 12.2559 32.9319 11.7281C32.063 11.1257 32.2667 9.98317 32.2327 8.35005C32.3074 7.11434 32.0427 4.97825 32.4296 3.96609C32.9115 3.1961 34.1876 3.44449 35.0428 3.33271C38.8983 2.98498 42.8352 3.44449 46.6295 2.81732L46.7313 2.78006L46.7246 2.78627ZM25.0988 24.1782C25.5332 24.3894 26.0491 24.4887 26.5446 24.526C28.7845 24.557 31.0652 24.0478 33.3323 24.0168C37.6018 23.8429 41.9528 23.7125 46.1748 23.7249C47.9464 23.6691 50.0098 24.0541 51.6117 23.3524C52.3991 22.9736 52.7114 22.2098 52.4059 21.5826C51.9851 20.6015 50.4035 20.3904 49.2157 20.5457C43.6294 21.3839 38.0023 21.4026 32.3006 21.4895C30.5018 21.5143 28.642 21.4088 26.8772 21.2846C26.0016 21.2473 24.8273 21.2784 24.2639 21.7565C23.5037 22.3154 23.9313 23.5697 25.0038 24.1348L25.092 24.1782H25.0988Z" fill="#4D4C4C"/>
<path d="M46.7855 33.7517C44.7153 33.969 42.1767 30.7152 45.2176 30.3923C50.9804 30.8456 56.6346 30.6966 62.5263 30.3985C65.7573 30.3613 69.029 29.7838 72.1921 29.4733C73.7668 29.4298 74.656 31.6156 73.441 32.4353C72.8844 32.8265 71.9816 32.8761 71.2554 32.8451C63.273 32.5222 54.8697 32.7644 46.9145 33.7517H46.7923H46.7855Z" fill="#4D4C4C"/>
<path fill-rule="evenodd" clip-rule="evenodd" d="M59.1801 47.9977C57.6732 47.9977 56.3496 47.7369 55.2024 47.2215C54.0553 46.7061 53.1593 45.9796 52.5077 45.0543C51.8561 44.1229 51.5303 43.0611 51.5303 41.8564C51.5303 40.6518 51.8832 39.6272 52.5892 38.6957C53.2951 37.7643 54.2386 37.0254 55.4196 36.4727C56.6007 35.9201 57.8972 35.6406 59.3158 35.6406C60.7345 35.6406 62.092 35.858 63.2595 36.2926C64.427 36.7273 65.3501 37.3855 66.0221 38.2549C66.6941 39.1242 67.0335 40.2047 67.0335 41.5025C67.0335 42.8003 66.6873 43.8994 66.0085 44.8681C65.323 45.843 64.3931 46.6067 63.212 47.1594C62.0309 47.712 60.6869 47.9853 59.1868 47.9853L59.1801 47.9977ZM59.2479 45.5635C60.5037 45.5635 61.5558 45.222 62.4042 44.5389C63.2459 43.8559 63.6668 42.9058 63.6668 41.6825C63.6668 40.4593 63.2595 39.5464 62.4382 38.882C61.6169 38.2114 60.6123 37.8761 59.4176 37.8761C58.1144 37.8761 57.0216 38.2424 56.1459 38.969C55.2703 39.6955 54.8291 40.6518 54.8291 41.8254C54.8291 42.999 55.2567 43.8931 56.112 44.5638C56.9673 45.2344 58.0126 45.5697 59.2479 45.5697V45.5635Z" fill="#4D4C4C"/>
<path d="M67.7259 25.9908C66.6535 23.7989 56.3225 26.5186 54.3066 24.8172C52.8608 23.6933 52.8201 21.1163 54.0011 19.8496C54.931 19.0175 56.4447 19.0734 57.6936 19.0051C59.0512 18.9057 67.7531 19.0237 67.0132 17.5396C63.7755 15.7202 57.5104 17.1546 53.6278 16.8379C52.1277 16.8379 50.1932 16.3598 48.9307 17.2167C48.4555 17.6514 48.5641 18.322 48.7067 18.9305C48.9375 19.8309 49.2768 20.7437 49.3854 21.6814C49.6162 23.9976 49.3583 26.8664 52.182 27.506C54.9446 27.9903 57.9109 27.5184 60.7142 27.5619C62.6419 27.4377 66.606 27.6115 67.7259 26.0343V25.9846V25.9908Z" fill="#4D4C4C"/>
<ellipse cx="62.768" cy="7.33594" rx="3.96429" ry="4" fill="url(#paint0_linear_394_332)"/>
<path d="M7.92843 41.3333C7.92843 43.1743 6.44937 44.6667 4.62486 44.6667C2.80035 44.6667 1.32129 43.1743 1.32129 41.3333C1.32129 39.4924 2.80035 38 4.62486 38C6.44937 38 7.92843 39.4924 7.92843 41.3333Z" fill="url(#paint1_linear_394_332)" fill-opacity="0.8"/>
<path d="M36.9997 35.3333C36.9997 37.1713 35.5203 38.6667 33.6961 38.6667C31.872 38.6667 30.3926 37.1779 30.3926 35.3333C30.3926 33.4888 31.872 32 33.6961 32C35.5203 32 36.9997 33.4888 36.9997 35.3333Z" fill="#FFBB45"/>
</g>
<defs>
<linearGradient id="paint0_linear_394_332" x1="62.768" y1="3.33594" x2="62.768" y2="11.3359" gradientUnits="userSpaceOnUse">
<stop offset="1" stop-color="#0F9D58"/>
</linearGradient>
<linearGradient id="paint1_linear_394_332" x1="4.62486" y1="38" x2="4.62486" y2="44.6667" gradientUnits="userSpaceOnUse">
<stop offset="1" stop-color="#DD1818"/>
</linearGradient>
<clipPath id="clip0_394_332">
<rect width="74" height="48" fill="white"/>
</clipPath>
</defs>
</svg>
